<svg id="svg" version="1.1" width="1024" height="1024" xmlns="http://www.w3.org/2000/svg"><path d="M923.188 243.488 C 922.112 244.856,919.296 250.594,916.932 256.238 C 909.528 273.909,891.749 308.187,890.725 306.766 C 890.087 305.882,889.986 306.040,890.390 307.292 C 891.050 309.332,885.685 319.523,883.513 320.357 C 882.745 320.651,882.164 321.704,882.222 322.696 C 882.328 324.499,867.808 350.607,865.645 352.504 C 865.015 353.056,864.392 354.054,864.260 354.722 C 864.129 355.391,861.814 359.664,859.117 364.219 C 856.420 368.773,851.541 377.113,848.275 382.752 C 845.009 388.390,841.964 392.665,841.508 392.252 C 841.052 391.838,840.962 391.997,841.308 392.604 C 841.654 393.211,837.991 400.636,833.168 409.104 C 828.346 417.572,822.871 427.284,821.003 430.688 C 819.135 434.091,817.176 436.609,816.649 436.283 C 816.122 435.957,815.970 436.142,816.311 436.694 C 817.104 437.978,810.129 451.198,809.019 450.512 C 808.561 450.229,808.393 450.788,808.646 451.754 C 808.898 452.720,808.164 454.520,807.014 455.755 C 805.863 456.990,805.174 458.000,805.481 458.000 C 805.789 458.000,805.122 459.800,804.000 462.000 C 802.878 464.200,801.593 466.000,801.146 466.000 C 800.699 466.000,800.285 466.563,800.225 467.250 C 800.165 467.938,799.718 471.066,799.232 474.202 C 798.746 477.337,798.720 479.673,799.174 479.392 C 799.628 479.112,800.000 479.659,800.000 480.608 C 800.000 481.557,800.237 482.096,800.527 481.806 C 800.817 481.517,802.619 482.713,804.531 484.465 C 806.444 486.216,810.144 488.657,812.754 489.888 C 815.364 491.118,818.335 492.580,819.355 493.137 C 820.654 493.845,821.010 493.826,820.546 493.074 C 820.181 492.483,820.523 492.000,821.306 492.000 C 824.613 492.000,828.310 486.989,839.521 467.308 C 857.434 435.864,882.033 395.441,910.604 350.500 C 936.442 309.858,948.146 290.779,955.377 277.514 C 967.070 256.060,966.386 253.982,944.910 245.734 C 930.646 240.255,926.101 239.785,923.188 243.488 M283.949 251.144 C 282.079 251.527,280.201 251.624,279.775 251.361 C 279.349 251.097,279.000 251.279,279.000 251.764 C 279.000 252.249,275.738 254.144,271.750 255.976 C 248.539 266.637,214.316 284.647,196.071 295.800 C 194.185 296.953,192.160 297.623,191.571 297.288 C 190.982 296.953,190.840 297.054,191.255 297.512 C 191.671 297.970,188.668 300.530,184.581 303.201 C 174.148 310.022,167.357 316.390,165.941 320.678 C 164.417 325.298,165.203 333.855,167.838 341.310 C 168.967 344.506,169.764 347.656,169.609 348.310 C 169.455 348.965,169.532 349.116,169.782 348.646 C 170.032 348.176,171.754 350.486,173.610 353.779 C 177.912 361.412,185.069 369.381,190.366 372.435 C 195.153 375.196,208.361 379.486,215.240 380.515 C 218.137 380.948,219.729 381.629,219.335 382.267 C 218.965 382.866,219.173 383.011,219.827 382.607 C 221.286 381.705,264.390 388.876,264.835 390.095 C 265.020 390.600,265.559 390.772,266.034 390.479 C 267.148 389.791,275.656 391.868,279.374 393.736 C 281.773 394.941,282.021 395.390,280.874 396.449 C 278.816 398.350,258.439 410.879,256.865 411.212 C 256.114 411.370,255.275 411.778,255.000 412.119 C 252.137 415.663,201.353 435.733,198.256 434.545 C 197.508 434.258,197.139 434.416,197.436 434.897 C 198.473 436.574,150.466 449.617,146.793 448.656 C 145.805 448.398,145.220 448.546,145.491 448.986 C 145.763 449.426,143.072 450.365,139.511 451.073 C 131.938 452.578,130.514 453.291,131.250 455.209 C 132.339 458.046,142.940 460.244,153.176 459.756 C 158.416 459.506,163.108 459.065,163.602 458.775 C 164.096 458.486,167.200 457.973,170.500 457.634 C 178.605 456.803,176.389 457.671,150.416 465.502 C 123.800 473.527,117.110 475.256,115.324 474.571 C 114.539 474.270,114.139 474.416,114.435 474.896 C 114.924 475.687,103.748 477.962,91.839 479.496 C 86.480 480.186,84.963 482.288,88.282 484.422 C 101.341 492.818,153.030 491.217,198.651 481.005 C 205.677 479.432,211.741 478.340,212.127 478.579 C 212.513 478.817,212.980 478.672,213.165 478.256 C 213.349 477.840,216.875 476.664,221.000 475.642 C 241.262 470.624,273.904 458.467,289.000 450.316 C 307.343 440.412,317.868 431.647,321.801 423.000 C 326.901 411.787,324.378 391.785,316.043 377.345 C 313.040 372.141,307.019 366.512,301.500 363.746 C 293.093 359.532,275.542 354.303,251.500 348.848 C 229.803 343.924,218.259 340.008,219.505 337.992 C 219.853 337.428,220.627 337.269,221.224 337.638 C 221.821 338.007,222.030 337.858,221.690 337.308 C 221.350 336.757,222.293 335.173,223.786 333.789 C 226.931 330.872,241.179 321.240,243.753 320.290 C 244.714 319.936,245.725 319.325,246.000 318.932 C 247.072 317.401,263.398 308.128,264.175 308.608 C 264.629 308.889,265.000 308.656,265.000 308.090 C 265.000 306.151,267.883 308.169,268.192 310.324 C 268.361 311.510,269.228 312.618,270.117 312.788 C 273.788 313.487,302.736 291.063,307.153 284.098 C 310.772 278.391,310.852 274.143,307.400 270.924 C 305.970 269.591,302.991 265.212,300.779 261.194 C 295.316 251.268,292.261 249.444,283.949 251.144 M201.000 288.455 C 201.000 289.227,203.976 289.847,204.399 289.164 C 204.653 288.752,203.993 288.350,202.931 288.270 C 201.869 288.190,201.000 288.273,201.000 288.455 M514.796 342.750 C 510.085 348.197,467.186 425.450,452.914 454.187 C 449.995 460.065,447.347 464.714,447.029 464.518 C 446.039 463.906,446.828 471.811,447.971 473.946 C 450.307 478.311,466.230 486.944,472.000 486.974 C 477.292 487.002,480.618 484.401,493.243 470.364 C 508.663 453.218,525.549 436.603,526.780 437.364 C 527.327 437.702,527.712 437.384,527.637 436.658 C 527.516 435.495,539.886 424.000,541.257 424.000 C 541.549 424.000,543.179 422.701,544.878 421.114 C 548.202 418.008,566.713 405.431,569.576 404.333 C 570.948 403.806,570.737 404.592,568.568 408.083 C 564.834 414.093,555.597 433.362,553.508 439.500 C 548.697 453.637,547.488 464.844,549.948 472.500 C 551.706 477.969,557.600 484.000,561.187 484.000 C 563.691 484.000,564.415 483.100,568.475 474.943 C 570.954 469.962,574.411 463.809,576.158 461.270 C 577.904 458.732,581.657 452.681,584.497 447.824 C 587.337 442.968,589.887 439.220,590.164 439.497 C 590.440 439.774,590.667 439.438,590.669 438.750 C 590.670 438.063,594.179 431.425,598.468 424.000 C 611.159 402.029,619.161 385.747,619.724 380.753 C 620.278 375.838,618.772 369.997,615.891 365.887 C 614.883 364.450,614.383 362.950,614.780 362.554 C 615.176 362.158,615.050 361.942,614.500 362.075 C 613.950 362.208,610.812 361.042,607.527 359.483 C 599.653 355.747,592.111 355.701,583.000 359.331 C 579.425 360.756,575.825 362.051,575.000 362.210 C 574.175 362.370,573.275 362.763,573.000 363.085 C 572.725 363.407,569.125 365.605,565.000 367.969 C 557.405 372.322,537.366 386.000,531.062 391.134 C 528.290 393.392,527.323 393.707,526.062 392.765 C 524.748 391.782,524.702 391.823,525.776 393.024 C 526.825 394.198,526.709 394.724,525.128 395.976 C 524.070 396.814,520.796 399.521,517.852 401.992 C 514.909 404.462,513.175 405.587,514.000 404.492 C 514.825 403.396,515.950 402.169,516.500 401.765 C 517.050 401.361,517.156 401.024,516.736 401.015 C 515.639 400.993,521.080 393.000,522.192 393.000 C 522.701 393.000,522.903 392.653,522.641 392.228 C 522.378 391.803,526.167 386.115,531.059 379.588 C 535.951 373.061,540.255 366.773,540.622 365.615 C 543.191 357.520,538.290 350.394,525.508 343.638 C 519.679 340.557,516.893 340.326,514.796 342.750 M457.242 350.628 C 456.551 350.927,453.858 353.946,451.259 357.336 C 440.398 371.501,412.022 401.310,397.500 413.807 C 394.750 416.174,391.825 418.714,391.000 419.453 C 386.089 423.849,378.326 428.955,377.206 428.526 C 376.486 428.249,376.172 428.469,376.508 429.013 C 377.098 429.968,373.600 431.755,369.547 432.571 C 368.472 432.787,366.560 432.286,365.297 431.459 C 363.430 430.235,363.000 429.057,363.000 425.158 C 363.000 422.521,363.709 417.974,364.576 415.055 C 367.169 406.324,375.727 385.192,377.913 382.122 C 381.360 377.281,381.913 374.787,380.469 370.588 C 378.310 364.306,368.711 356.000,363.611 356.000 C 362.804 356.000,361.363 355.221,360.411 354.268 C 359.155 353.012,358.812 352.935,359.162 353.987 C 359.446 354.837,358.386 356.287,356.600 357.491 C 352.805 360.048,346.565 372.268,341.020 388.000 C 336.621 400.482,332.031 417.897,332.012 422.179 C 332.005 423.652,331.325 425.532,330.500 426.357 C 329.675 427.182,329.007 428.452,329.015 429.179 C 329.027 430.165,329.301 430.120,330.100 429.000 C 330.897 427.881,330.989 428.389,330.463 431.000 C 329.573 435.414,329.597 436.189,330.860 443.500 C 332.619 453.682,333.982 456.982,338.145 461.145 C 342.756 465.756,352.366 470.632,358.720 471.585 C 361.325 471.976,364.970 471.708,367.788 470.919 C 370.380 470.194,372.725 469.589,373.000 469.576 C 373.275 469.563,374.175 469.011,375.000 468.350 C 378.595 465.470,393.089 456.046,392.528 456.954 C 390.896 459.596,360.719 501.782,359.055 503.750 C 358.008 504.988,357.332 506.000,357.554 506.000 C 357.775 506.000,354.648 511.063,350.605 517.250 C 342.388 529.825,337.000 539.275,337.000 541.113 C 337.000 541.784,337.245 542.088,337.544 541.789 C 337.844 541.490,339.822 542.961,341.941 545.059 C 344.060 547.157,346.005 548.661,346.264 548.403 C 346.522 548.144,348.159 549.635,349.902 551.716 C 354.243 556.902,354.639 557.433,355.099 558.689 C 355.388 559.480,356.398 559.467,358.720 558.643 C 361.061 557.812,364.164 554.531,370.083 546.629 C 378.546 535.331,405.924 494.776,421.478 470.500 C 426.411 462.800,430.797 456.350,431.224 456.167 C 431.651 455.983,432.000 455.436,432.000 454.950 C 432.000 453.324,442.186 438.000,443.267 438.000 C 443.853 438.000,444.086 437.753,443.784 437.451 C 443.482 437.149,449.511 426.461,457.181 413.701 C 464.852 400.940,473.408 385.930,476.196 380.346 C 480.539 371.645,481.258 369.383,481.214 364.546 C 481.186 361.442,480.621 358.249,479.959 357.451 C 478.480 355.669,474.671 355.574,471.926 357.250 C 469.781 358.559,469.753 358.540,465.580 352.757 C 464.264 350.935,459.403 349.693,457.242 350.628 M702.500 351.488 C 699.750 352.234,696.225 353.333,694.666 353.930 C 693.107 354.526,691.458 354.783,691.001 354.501 C 690.545 354.219,690.020 354.337,689.835 354.765 C 689.389 355.798,675.842 361.538,674.261 361.363 C 673.579 361.288,673.208 361.527,673.435 361.895 C 673.663 362.264,671.296 363.883,668.175 365.495 C 665.054 367.106,662.275 368.700,662.000 369.037 C 661.725 369.374,658.800 371.474,655.500 373.702 C 647.611 379.030,637.599 388.901,631.702 397.165 C 622.611 409.905,615.969 427.773,615.720 440.162 C 615.562 448.022,616.312 458.925,616.983 458.511 C 617.303 458.313,618.873 460.648,620.471 463.701 C 623.688 469.845,629.116 474.630,640.384 481.252 C 644.298 483.552,647.766 485.810,648.092 486.270 C 648.417 486.729,649.092 486.998,649.592 486.867 C 650.091 486.736,653.246 486.974,656.603 487.395 C 673.009 489.457,715.773 476.397,744.500 460.553 C 747.800 458.732,753.313 455.793,756.750 454.020 C 764.559 449.993,765.252 447.412,758.250 448.431 C 755.638 448.811,752.712 449.191,751.750 449.275 C 750.788 449.359,750.000 449.810,750.000 450.277 C 750.000 450.744,749.212 450.996,748.250 450.838 C 747.288 450.679,746.050 450.825,745.500 451.160 C 744.149 451.986,729.294 456.008,727.739 455.970 C 726.076 455.929,729.263 454.101,731.643 453.731 C 732.664 453.572,734.036 453.107,734.691 452.698 C 737.223 451.117,749.001 447.056,749.015 447.759 C 749.024 448.166,749.364 447.977,749.771 447.337 C 750.178 446.697,753.883 444.823,758.005 443.172 C 762.127 441.521,770.748 437.692,777.162 434.664 C 783.577 431.636,789.089 429.347,789.412 429.579 C 789.736 429.811,789.779 429.704,789.509 429.342 C 789.238 428.980,789.514 428.085,790.121 427.354 C 793.165 423.686,783.200 424.714,765.040 429.941 C 759.430 431.555,754.128 432.603,753.256 432.268 C 752.357 431.923,751.931 432.080,752.271 432.630 C 753.022 433.845,726.424 441.380,724.839 440.401 C 724.077 439.930,723.966 440.137,724.510 441.015 C 725.097 441.966,724.877 442.167,723.729 441.726 C 722.849 441.389,721.988 441.522,721.815 442.022 C 721.642 442.522,719.925 443.059,718.000 443.216 C 716.075 443.372,714.267 443.807,713.983 444.182 C 713.027 445.443,698.919 448.906,697.287 448.280 C 696.319 447.908,695.925 448.069,696.304 448.682 C 697.149 450.050,666.471 458.103,657.971 458.744 C 652.909 459.126,651.159 458.896,650.182 457.719 C 647.359 454.318,648.391 444.947,652.453 437.091 C 653.708 434.664,654.552 434.091,656.281 434.493 C 664.638 436.435,667.122 436.484,676.992 434.907 C 682.771 433.984,689.525 432.675,692.000 431.998 C 694.475 431.322,697.513 430.764,698.750 430.759 C 699.987 430.754,701.000 430.356,701.000 429.875 C 701.000 429.394,701.601 429.000,702.334 429.000 C 704.094 429.000,733.502 418.269,738.021 415.978 C 739.958 414.996,742.433 414.037,743.521 413.846 C 744.610 413.656,745.725 413.248,746.000 412.941 C 747.528 411.231,756.394 407.117,757.360 407.669 C 757.987 408.028,758.185 407.971,757.800 407.544 C 757.415 407.117,760.461 404.573,764.568 401.892 C 774.115 395.660,774.991 393.874,771.678 387.399 C 767.830 379.882,755.365 366.428,748.000 361.844 C 745.235 360.124,724.513 352.327,719.000 350.933 C 714.127 349.700,708.376 349.894,702.500 351.488 M733.000 380.303 C 733.000 380.751,733.520 380.797,734.155 380.405 C 734.853 379.973,735.038 380.129,734.624 380.800 C 733.414 382.757,723.744 387.506,721.586 387.203 C 720.114 386.997,719.882 387.171,720.799 387.795 C 721.681 388.395,717.342 390.465,707.299 394.238 C 694.969 398.870,685.430 402.146,683.000 402.583 C 682.725 402.632,681.693 403.027,680.707 403.460 C 677.842 404.717,677.403 403.143,679.943 400.722 C 681.226 399.500,681.949 399.175,681.551 400.000 C 681.152 400.825,681.653 400.532,682.663 399.350 C 686.631 394.704,703.107 385.672,715.191 381.518 C 722.295 379.076,733.000 378.346,733.000 380.303 M192.459 433.067 C 192.096 433.653,192.014 434.348,192.276 434.610 C 192.538 434.872,193.019 434.392,193.345 433.543 C 194.021 431.781,193.445 431.471,192.459 433.067 M666.249 514.032 C 665.011 514.529,663.249 516.506,662.334 518.425 C 661.419 520.344,660.300 521.685,659.847 521.405 C 659.394 521.125,659.268 521.534,659.567 522.314 C 660.466 524.657,647.542 561.000,645.810 561.000 C 645.300 561.000,645.131 561.403,645.435 561.896 C 645.740 562.388,643.040 569.926,639.437 578.646 C 635.833 587.366,632.188 596.185,631.336 598.244 C 630.464 600.352,629.330 601.704,628.740 601.339 C 628.138 600.967,627.987 601.170,628.386 601.816 C 628.768 602.434,628.091 605.316,626.881 608.220 C 624.812 613.187,600.353 670.007,597.490 676.500 C 583.036 709.275,576.000 727.406,576.000 731.877 C 576.000 734.165,576.959 735.582,580.250 738.155 C 582.587 739.983,586.206 743.036,588.291 744.938 C 596.168 752.125,598.736 753.420,605.919 753.826 C 609.627 754.035,616.000 753.694,620.081 753.067 C 628.901 751.713,647.995 745.393,659.359 740.067 C 677.973 731.342,697.347 716.581,708.664 702.500 C 714.983 694.639,722.000 682.081,722.000 678.634 C 722.000 677.671,722.372 677.112,722.826 677.392 C 723.280 677.673,723.617 673.312,723.576 667.701 C 723.509 658.681,723.209 657.008,720.989 653.249 C 717.036 646.558,705.627 635.640,699.234 632.429 C 694.098 629.851,692.509 629.554,684.000 629.583 C 676.069 629.610,673.013 630.123,665.500 632.688 C 660.550 634.377,653.731 637.104,650.348 638.747 L 644.195 641.734 645.848 638.085 C 652.587 623.204,682.637 565.276,683.379 565.734 C 683.891 566.050,683.997 565.805,683.617 565.189 C 683.236 564.573,683.792 562.366,684.853 560.284 C 685.914 558.203,688.898 551.550,691.484 545.500 C 695.250 536.691,696.084 533.729,695.672 530.629 C 694.901 524.824,690.298 520.729,679.839 516.543 C 670.383 512.759,669.721 512.636,666.249 514.032 M518.834 548.919 C 508.460 555.877,493.251 571.460,474.587 594.253 C 470.235 599.568,466.228 603.641,465.683 603.304 C 465.137 602.967,464.979 603.156,465.330 603.725 C 465.962 604.747,442.355 637.337,439.234 639.750 C 438.345 640.438,437.911 641.000,438.269 641.000 C 438.627 641.000,430.785 652.362,420.841 666.250 C 410.897 680.138,402.310 691.369,401.758 691.209 C 401.206 691.049,400.982 691.512,401.261 692.237 C 401.539 692.962,400.719 694.868,399.439 696.474 L 397.112 699.392 399.094 690.446 C 400.184 685.526,401.546 679.362,402.121 676.750 C 402.695 674.138,403.466 671.998,403.833 671.996 C 404.200 671.993,404.578 670.460,404.672 668.588 C 404.838 665.314,412.517 634.726,415.720 624.581 C 419.014 614.149,417.136 608.863,408.072 603.046 C 402.905 599.730,399.219 599.092,395.000 600.780 C 390.286 602.668,334.252 660.017,311.750 685.984 C 309.137 688.999,307.000 691.008,307.000 690.449 C 307.000 689.890,308.848 682.698,311.106 674.466 C 313.365 666.235,315.668 657.819,316.225 655.764 C 316.781 653.709,317.591 652.247,318.025 652.515 C 318.459 652.783,318.598 652.178,318.334 651.171 C 317.911 649.550,328.092 617.507,336.969 592.523 C 340.864 581.559,340.558 577.720,335.112 569.295 C 331.176 563.205,323.794 556.126,321.070 555.829 C 315.907 555.266,314.340 555.688,312.185 558.221 C 309.906 560.901,302.509 580.543,299.955 590.700 C 299.236 593.560,298.308 595.690,297.893 595.434 C 297.478 595.177,296.813 595.494,296.415 596.138 C 295.963 596.869,296.124 597.041,296.845 596.595 C 298.427 595.618,298.523 595.146,293.663 612.243 C 291.277 620.634,288.041 632.761,286.471 639.191 C 284.901 645.621,283.205 650.627,282.701 650.315 C 282.198 650.004,282.059 650.611,282.393 651.663 C 282.727 652.716,282.387 656.035,281.636 659.039 C 280.886 662.042,278.981 670.424,277.403 677.665 C 275.825 684.906,274.170 690.605,273.727 690.331 C 273.283 690.057,273.199 690.946,273.541 692.307 C 273.890 693.698,273.681 695.079,273.065 695.460 C 272.461 695.833,272.189 696.498,272.461 696.937 C 272.732 697.376,272.271 701.282,271.435 705.618 C 266.801 729.657,266.066 735.887,267.403 739.751 C 268.117 741.813,269.106 743.512,269.601 743.526 C 270.095 743.541,272.525 744.754,275.000 746.223 C 282.279 750.542,291.266 754.198,294.606 754.199 C 301.661 754.201,303.993 751.619,332.476 712.265 C 337.346 705.535,342.719 698.514,344.415 696.662 C 346.112 694.810,347.640 692.891,347.810 692.397 C 348.196 691.281,368.956 667.000,369.524 667.000 C 369.751 667.000,369.731 667.563,369.479 668.250 C 368.675 670.441,364.000 699.249,364.000 702.011 C 364.000 703.472,363.689 704.978,363.308 705.359 C 362.927 705.740,362.510 708.177,362.381 710.776 C 361.686 724.770,361.560 732.774,362.040 732.476 C 362.336 732.292,363.415 733.348,364.437 734.821 C 367.668 739.481,378.291 748.192,384.000 750.861 C 390.532 753.916,396.109 754.014,401.631 751.169 C 407.675 748.055,411.107 743.641,420.036 727.500 C 435.705 699.176,469.470 644.000,471.134 644.000 C 471.675 644.000,471.901 643.649,471.636 643.220 C 471.092 642.340,492.280 610.102,494.521 608.401 C 495.317 607.797,495.785 607.118,495.560 606.894 C 495.336 606.669,498.943 601.110,503.576 594.540 C 512.100 582.452,513.884 578.267,509.986 579.505 C 508.557 579.958,511.028 575.497,518.486 564.162 C 532.406 543.002,532.480 539.766,518.834 548.919 M535.460 624.794 C 535.771 625.105,532.307 626.423,527.763 627.724 C 523.218 629.026,516.688 631.396,513.250 632.992 C 509.813 634.589,507.000 635.698,507.000 635.457 C 507.000 635.217,506.212 635.680,505.250 636.486 C 504.288 637.293,500.701 639.889,497.279 642.256 C 489.777 647.444,480.063 656.683,474.942 663.500 C 467.150 673.874,460.726 689.790,458.484 704.278 C 458.085 706.852,457.517 707.826,456.699 707.336 C 456.037 706.939,456.140 707.404,456.928 708.375 C 457.714 709.343,458.389 712.311,458.428 714.971 C 458.468 717.631,458.837 719.599,459.250 719.345 C 459.663 719.090,460.000 719.835,460.000 721.000 C 460.000 722.365,459.556 722.893,458.750 722.485 C 458.063 722.137,458.270 722.484,459.211 723.257 C 460.152 724.030,461.344 725.751,461.861 727.081 C 463.894 732.313,469.015 737.742,476.826 742.947 C 481.322 745.943,485.000 748.782,485.000 749.256 C 485.000 749.730,485.518 749.798,486.152 749.406 C 486.785 749.015,487.910 749.524,488.652 750.538 C 489.425 751.596,490.000 751.846,490.000 751.124 C 490.000 750.351,490.719 750.094,491.865 750.457 C 494.175 751.190,507.954 751.408,510.000 750.743 C 510.825 750.475,514.145 749.482,517.377 748.537 C 520.610 747.591,526.130 745.487,529.644 743.860 C 533.158 742.234,536.546 741.219,537.171 741.606 C 537.797 741.993,538.045 741.881,537.722 741.359 C 537.399 740.836,540.367 738.495,544.317 736.157 C 556.183 729.134,565.435 722.563,564.953 721.500 C 564.704 720.950,563.071 720.485,561.325 720.466 C 559.578 720.448,558.324 720.715,558.537 721.060 C 558.943 721.716,551.854 724.187,551.263 723.596 C 551.076 723.410,553.304 721.753,556.212 719.914 C 559.120 718.076,565.403 713.783,570.173 710.375 C 574.942 706.967,579.177 704.476,579.583 704.839 C 579.989 705.203,579.995 704.934,579.597 704.243 C 579.174 703.509,579.523 702.736,580.437 702.386 C 581.296 702.056,582.000 700.822,582.000 699.643 C 582.000 698.046,581.387 697.500,579.595 697.500 C 578.273 697.500,577.346 697.751,577.536 698.057 C 577.725 698.364,574.870 699.801,571.190 701.251 C 567.511 702.701,559.435 705.963,553.243 708.499 C 547.052 711.035,541.540 712.834,540.993 712.496 C 540.447 712.158,540.000 712.341,540.000 712.902 C 540.000 714.221,532.305 716.307,530.822 715.390 C 530.199 715.005,529.964 715.133,530.300 715.677 C 530.997 716.804,524.075 719.140,509.771 722.603 C 497.420 725.594,492.922 725.677,490.463 722.959 C 488.305 720.575,487.998 713.435,489.819 708.000 L 490.991 704.500 501.246 704.414 C 511.688 704.326,523.033 701.903,535.632 697.067 C 538.455 695.984,541.042 695.301,541.382 695.549 C 541.722 695.797,541.819 695.744,541.597 695.431 C 541.376 695.118,546.043 692.396,551.969 689.383 C 567.465 681.502,579.707 670.732,583.508 661.635 C 585.538 656.776,583.928 652.176,577.880 645.559 C 573.653 640.935,570.684 638.992,559.665 633.643 C 552.424 630.129,545.150 626.667,543.500 625.951 C 540.453 624.628,534.428 623.761,535.460 624.794 M549.000 655.927 C 549.000 659.100,523.506 673.627,519.689 672.629 C 518.651 672.357,518.087 672.420,518.435 672.768 C 518.783 673.116,516.505 674.213,513.372 675.205 C 510.239 676.197,507.459 676.793,507.195 676.528 C 506.930 676.264,507.566 675.733,508.607 675.349 C 509.648 674.965,510.865 674.045,511.311 673.304 C 511.758 672.564,512.615 672.262,513.216 672.633 C 513.822 673.008,514.027 672.852,513.676 672.284 C 512.356 670.149,532.685 657.986,540.754 656.084 C 545.873 654.877,549.000 654.818,549.000 655.927 M688.114 656.061 C 689.204 656.644,690.554 658.327,691.114 659.800 C 692.362 663.082,691.384 669.355,689.780 668.364 C 689.042 667.908,688.886 668.261,689.322 669.397 C 690.344 672.061,683.801 681.477,674.830 690.250 C 670.471 694.513,666.251 698.000,665.452 698.000 C 664.654 698.000,664.000 698.401,664.000 698.891 C 664.000 699.381,660.063 702.456,655.250 705.726 C 646.603 711.600,643.211 713.468,641.750 713.159 C 641.337 713.071,641.000 713.397,641.000 713.881 C 641.000 714.986,626.441 721.264,618.697 723.498 C 612.816 725.195,610.000 725.005,610.000 722.909 C 610.000 722.040,610.342 722.039,611.383 722.903 C 612.448 723.787,612.898 723.707,613.340 722.558 C 613.655 721.736,613.465 720.787,612.917 720.449 C 610.345 718.859,625.339 696.792,637.950 683.607 C 645.468 675.749,660.234 664.000,662.594 664.000 C 663.276 664.000,663.983 663.552,664.167 663.004 C 664.678 661.476,680.132 655.026,683.316 655.012 C 684.864 655.005,687.023 655.477,688.114 656.061 M360.000 707.500 C 360.000 708.325,360.436 709.000,360.969 709.000 C 361.501 709.000,361.678 708.325,361.362 707.500 C 361.045 706.675,360.609 706.000,360.393 706.000 C 360.177 706.000,360.000 706.675,360.000 707.500 M614.667 721.667 C 614.300 722.033,614.000 722.798,614.000 723.367 C 614.000 723.993,614.466 723.934,615.183 723.217 C 615.834 722.566,616.134 721.801,615.850 721.517 C 615.566 721.232,615.033 721.300,614.667 721.667 " stroke="none" fill="black" fill-rule="evenodd"/></svg>