<svg viewBox="0 0 600 600" version="1.1" xmlns="http://www.w3.org/2000/svg" desc="Created with imagetracer.js version 1.2.6" ><path desc="l 0 p 0" fill="rgb(0,0,0)" stroke="rgb(0,0,0)" stroke-width="1" opacity="0" d="M 0 0 L 600 0 L 600 600 L 0 600 L 0 0 Z M 544 149 L 539 154 Q 540 156 538 155 L 538 157 L 534 161 L 534 164 L 530 166 L 532 167 L 529 172 Q 530 174 528 173 Q 523 175 526 177 L 525 179 Q 521 180 524 182 L 523 181 L 522 183 L 522 185 L 521 185 L 521 187 L 519 187 L 519 189 L 518 193 L 517 192 L 515 197 Q 516 199 514 198 L 514 200 L 513 200 Q 510 201 512 203 L 511 205 L 508 206 L 506 214 L 504 214 L 504 217 L 502 217 Q 503 221 501 220 L 501 222 L 500 222 L 500 224 L 497 225 Q 498 230 494 233 Q 495 236 493 235 Q 490 236 492 238 L 488 243 L 488 245 L 485 246 L 484 252 L 480 254 L 480 256 L 478 256 L 478 261 L 474 266 Q 475 268 472 267 L 465 282 L 468 285 L 467 286 L 469 286 L 471 290 L 473 289 L 478 291 L 482 290 L 484 291 L 485 289 Q 484 286 487 287 L 488 283 L 494 274 Q 493 271 496 272 L 495 271 L 498 267 Q 497 264 500 265 L 502 259 L 505 257 L 504 256 L 506 255 L 505 254 L 508 250 Q 511 248 509 247 L 511 244 L 515 242 Q 514 237 517 235 Q 516 232 519 233 L 519 230 L 521 230 L 521 227 L 523 227 L 522 226 L 531 213 Q 530 210 533 211 L 533 209 Q 532 206 535 207 L 536 205 L 539 202 L 538 201 L 541 197 Q 540 194 543 195 L 543 193 Q 546 188 548 190 L 547 188 L 549 184 L 552 182 Q 554 181 552 180 L 553 178 L 553 176 L 555 176 Q 554 173 557 174 Q 559 173 557 172 L 559 169 Q 558 166 561 167 L 560 166 Q 563 164 563 159 L 555 153 Q 552 154 553 152 L 552 150 L 544 149 Z M 167 152 L 158 154 L 156 156 L 153 155 L 151 158 L 146 159 L 144 161 Q 141 160 142 163 L 139 164 Q 135 163 136 166 L 135 165 Q 132 170 125 171 L 122 174 L 121 173 L 119 174 L 119 176 L 111 179 L 113 180 L 110 181 L 107 184 L 106 183 L 104 186 L 99 188 L 95 197 L 97 197 L 96 199 L 99 207 L 99 209 L 101 209 L 103 214 L 103 216 L 106 217 L 105 219 L 108 218 Q 109 223 116 222 L 117 225 L 119 224 L 128 226 L 130 228 Q 129 225 132 226 L 133 229 L 134 227 L 138 228 L 140 228 L 143 229 L 145 229 Q 150 229 152 232 L 154 231 Q 155 234 157 232 L 159 233 L 161 233 L 158 237 L 159 238 L 158 237 L 157 239 L 154 241 L 154 240 L 152 239 L 152 241 L 141 248 L 139 248 L 136 249 Q 137 251 135 250 L 133 250 L 132 252 L 128 253 L 126 253 L 117 258 L 114 258 L 112 258 L 108 260 L 106 260 L 105 262 L 101 263 L 97 262 L 93 265 L 80 267 Q 78 271 76 267 L 75 270 L 79 272 L 81 272 L 93 272 L 94 271 L 94 273 L 90 273 L 88 275 L 76 277 L 61 282 L 50 283 L 48 283 Q 47 285 50 284 L 49 286 L 64 290 L 67 289 L 69 291 L 73 291 L 79 289 L 82 290 Q 83 287 90 289 L 92 289 L 96 287 L 107 286 L 111 284 Q 114 283 113 286 L 115 285 Q 117 286 116 283 L 119 284 Q 123 285 122 282 L 128 280 L 133 280 L 135 280 L 135 278 L 145 275 L 147 276 L 147 275 L 149 275 L 149 273 L 156 271 L 158 271 L 158 269 L 170 264 Q 171 260 173 263 L 174 261 L 176 261 L 179 257 L 181 258 L 185 252 Q 184 248 187 249 L 188 241 L 188 239 L 187 233 L 182 223 L 177 218 Q 174 219 175 217 L 174 217 L 171 215 Q 167 216 168 213 L 166 214 L 165 213 L 164 213 L 156 210 Q 152 211 153 209 L 152 209 Q 150 206 146 207 L 142 207 L 134 204 L 132 204 Q 129 205 130 202 L 128 202 L 130 199 Q 133 194 135 196 Q 134 193 137 194 L 137 192 Q 140 193 142 190 Q 145 191 144 188 L 151 186 L 150 185 L 153 183 L 153 186 L 155 186 L 155 187 L 160 187 L 161 185 L 163 186 Q 165 185 163 184 L 168 181 L 170 178 L 172 178 Q 171 175 174 176 L 180 168 L 180 165 L 177 161 Q 178 158 176 159 L 173 156 L 172 156 L 169 154 L 169 153 L 167 152 Z M 301 203 L 299 206 Q 300 208 297 207 L 296 212 L 293 215 L 289 224 L 287 223 L 287 225 L 286 228 Q 287 230 285 229 L 285 231 L 284 233 L 283 232 L 280 241 L 278 241 L 279 243 L 275 250 Q 276 252 273 251 L 269 261 Q 270 263 267 262 L 266 266 Q 267 268 265 267 Q 266 269 263 271 Q 264 273 262 272 L 262 274 Q 263 276 260 275 L 259 281 L 264 284 Q 266 283 265 286 Q 269 285 271 289 L 276 290 L 277 287 L 280 286 Q 282 287 281 284 L 283 284 L 284 280 L 287 279 Q 286 276 289 277 L 290 275 L 294 272 L 296 269 Q 298 270 297 267 L 302 265 L 302 263 L 304 263 Q 302 259 306 260 L 309 257 L 310 258 L 310 257 L 320 248 L 323 248 L 322 247 L 328 243 L 331 244 L 325 254 L 323 262 L 321 263 Q 322 265 319 267 L 320 269 Q 317 272 318 279 Q 321 280 319 282 L 320 285 L 322 284 Q 324 283 323 286 L 328 288 L 334 278 Q 333 275 336 276 L 335 275 L 344 261 Q 343 258 346 259 L 353 245 Q 352 242 355 243 L 355 240 L 362 229 L 361 220 Q 357 218 360 217 L 356 215 L 356 213 L 354 214 Q 351 215 352 212 L 349 213 L 346 211 L 344 214 L 341 213 L 340 215 L 334 218 L 333 216 L 332 219 L 327 222 Q 323 221 324 224 L 317 227 L 313 231 L 309 231 L 310 233 L 307 235 Q 304 234 305 237 L 304 237 Q 303 232 306 233 L 311 226 Q 310 223 313 224 L 317 218 L 316 214 Q 317 210 314 211 L 312 207 Q 307 209 308 205 L 307 205 L 301 203 Z M 416 206 L 413 207 L 413 209 L 411 208 Q 408 207 409 210 L 400 213 L 398 213 L 397 215 L 394 217 L 392 216 L 392 218 L 390 218 L 388 221 L 386 221 Q 387 223 384 222 L 382 225 L 378 227 L 376 230 L 373 232 L 373 234 Q 367 238 364 246 Q 365 248 362 247 L 361 251 Q 362 255 359 254 Q 360 259 357 262 L 358 264 L 357 267 L 359 267 L 358 271 L 362 277 L 362 279 L 375 287 Q 377 286 376 289 L 382 290 L 389 289 L 392 290 L 392 288 L 395 289 L 397 287 L 406 286 L 409 284 L 411 285 L 411 283 Q 416 283 419 280 L 421 281 L 421 279 L 425 279 L 430 276 L 432 276 L 432 275 L 438 271 L 441 272 L 440 271 L 445 267 Q 448 266 445 264 L 443 266 L 440 266 L 434 269 L 432 269 L 431 267 L 434 266 L 437 267 L 436 266 L 450 260 L 452 260 L 452 258 L 459 256 L 460 252 L 419 264 L 417 263 L 416 265 L 414 264 Q 411 263 412 266 L 407 267 L 405 267 L 402 267 Q 403 270 400 269 L 400 267 L 398 270 L 396 269 L 395 271 L 388 273 L 382 273 Q 377 271 378 264 L 380 264 L 379 262 L 382 260 L 382 258 Q 384 257 383 260 L 385 260 L 385 262 L 388 262 L 390 262 L 388 261 L 400 257 L 402 258 L 404 256 L 406 258 Q 405 253 410 255 L 412 255 L 412 253 Q 418 254 421 250 L 424 251 L 424 249 L 431 248 L 430 247 L 437 243 Q 441 244 440 241 L 450 235 L 449 225 L 445 223 Q 446 220 443 221 L 443 219 L 436 214 Q 432 215 433 212 L 429 211 L 426 207 L 420 208 L 416 206 Z M 270 210 L 263 215 Q 260 214 261 217 L 259 217 L 258 221 L 257 220 L 255 224 L 253 224 Q 254 226 252 225 L 252 227 L 240 236 L 236 243 Q 233 242 234 245 L 232 245 L 231 248 Q 227 247 228 250 L 221 253 L 219 253 L 218 256 L 213 258 L 210 256 L 210 254 L 211 247 Q 214 245 212 244 L 214 244 L 214 243 L 214 239 L 216 234 L 219 231 L 218 230 L 222 224 L 222 220 L 214 212 L 211 212 L 208 211 L 201 222 Q 202 225 200 224 L 200 226 L 200 227 L 199 225 L 198 228 L 198 230 L 197 235 L 196 234 L 194 238 L 195 241 L 192 249 Q 193 257 190 261 L 192 264 Q 191 270 193 272 L 197 275 Q 196 277 200 276 L 201 279 Q 205 277 204 281 L 206 280 Q 207 282 212 281 L 214 281 Q 216 282 215 279 L 219 277 Q 223 278 222 276 L 223 276 L 221 281 Q 222 284 218 282 L 218 284 L 216 285 L 218 285 L 218 286 Q 215 285 216 288 L 213 289 L 214 292 L 212 292 L 209 297 Q 210 299 208 298 Q 205 299 207 301 L 204 305 Q 205 307 202 306 L 201 309 Q 202 311 199 310 L 199 312 L 198 312 L 198 314 Q 194 317 194 322 L 200 324 Q 202 323 201 326 L 208 331 Q 210 332 209 330 L 211 330 L 211 328 L 214 326 L 221 315 L 224 313 L 223 312 L 226 308 Q 225 305 228 306 L 232 298 L 245 279 Q 244 276 247 277 L 248 274 Q 247 271 250 272 Q 248 270 251 269 Q 250 266 253 267 L 253 264 L 255 264 Q 254 261 257 262 L 256 261 L 276 228 L 277 224 L 280 222 L 279 221 L 281 213 L 278 211 L 276 214 L 274 213 L 273 215 L 270 210 Z M 153 232 L 152 234 L 154 233 L 153 232 Z M 390 304 Q 388 307 386 306 L 386 310 Q 383 309 384 312 L 385 313 L 382 316 L 383 317 L 382 317 L 382 319 L 379 325 Q 380 328 378 327 L 378 329 Q 379 331 376 330 L 374 340 L 371 343 L 372 344 L 371 344 L 371 346 L 368 350 L 367 356 L 358 374 L 357 379 L 354 383 L 354 386 L 352 388 Q 353 390 350 389 L 351 392 L 349 392 L 350 395 L 348 395 L 349 397 L 344 406 L 344 408 Q 341 409 342 412 L 337 412 L 334 415 L 326 418 L 321 417 Q 318 418 320 420 L 319 420 L 317 420 L 316 422 L 314 423 L 311 422 L 310 424 L 309 425 L 290 429 L 290 427 L 285 428 L 286 426 L 284 425 L 283 422 L 283 420 L 285 419 L 286 420 L 284 417 L 287 416 L 290 417 L 292 416 L 294 417 Q 298 418 300 415 L 302 416 L 301 415 L 303 415 L 305 413 L 311 412 L 313 412 L 313 410 L 316 411 L 316 409 L 323 407 L 333 399 L 336 398 L 338 392 L 338 386 L 334 380 Q 332 375 331 378 L 330 376 L 329 376 L 322 372 Q 319 373 320 370 L 317 371 L 315 370 Q 310 369 309 371 L 306 370 L 304 371 L 302 371 L 301 373 L 300 372 L 299 374 L 294 376 Q 291 375 292 378 L 286 382 Q 283 381 284 384 L 282 385 L 278 390 L 275 392 L 275 394 L 270 401 L 265 412 Q 268 413 264 415 L 265 419 L 264 422 L 268 432 L 268 434 Q 269 436 271 434 L 273 439 L 279 441 Q 281 440 280 443 L 282 442 L 282 444 L 284 443 L 288 445 L 291 444 L 293 445 L 297 443 L 300 444 L 300 443 L 302 443 L 315 436 L 318 433 L 319 434 L 319 433 L 322 431 L 324 431 L 327 426 Q 331 427 329 423 L 337 417 L 340 417 Q 341 420 337 419 Q 338 426 335 429 L 336 432 L 335 434 L 337 433 L 337 437 L 349 444 L 354 445 L 362 445 L 363 444 Q 367 443 369 445 L 369 444 L 371 444 L 373 443 L 375 443 L 379 441 L 381 441 L 381 440 L 383 440 L 383 438 L 388 436 Q 391 437 390 434 Q 397 432 402 426 Q 404 427 403 424 L 410 420 Q 409 416 413 415 Q 412 412 415 413 L 415 411 L 417 411 L 420 404 Q 419 400 422 401 L 422 399 L 422 388 L 420 387 L 415 378 Q 412 379 413 377 L 408 374 L 408 373 L 405 371 L 402 372 L 398 371 Q 394 370 395 373 L 394 372 L 393 374 L 387 375 L 376 381 L 374 382 L 375 379 Q 374 376 377 377 L 376 376 L 378 375 L 377 374 L 382 366 Q 384 367 383 365 L 383 363 Q 382 360 385 361 L 384 360 L 389 350 L 392 347 L 392 344 L 395 338 L 397 338 L 396 336 L 398 335 Q 397 331 400 330 Q 399 326 402 327 L 401 326 L 405 318 Q 406 312 403 311 Q 404 308 401 309 L 398 305 L 397 307 L 390 304 Z M 309 323 L 300 328 Q 297 327 298 330 L 296 330 L 296 332 L 294 333 L 286 342 L 284 343 L 282 346 L 280 347 Q 277 348 279 350 L 278 349 L 272 358 L 270 358 Q 271 360 269 359 Q 270 361 267 363 Q 264 362 265 366 L 263 366 L 262 370 L 255 378 Q 256 380 253 379 L 252 383 L 241 397 Q 242 399 239 398 L 237 403 L 234 405 Q 230 406 231 403 L 233 403 L 232 401 L 236 382 L 238 380 Q 238 371 242 366 Q 242 359 238 357 Q 239 354 236 355 L 236 353 L 234 354 L 232 353 L 231 355 L 226 358 Q 223 357 224 360 L 218 363 L 217 367 L 213 368 L 211 372 Q 208 371 209 374 L 204 378 Q 205 380 202 379 L 201 382 Q 198 381 199 384 L 197 384 L 197 386 L 194 387 L 193 391 Q 192 393 191 391 L 190 394 L 185 399 Q 181 398 183 402 L 182 402 L 179 406 L 177 403 L 179 396 L 181 394 L 180 392 L 182 391 Q 181 385 184 382 Q 182 377 186 378 L 185 377 Q 184 374 187 375 L 186 374 L 190 365 Q 193 366 191 362 L 191 360 L 195 350 L 195 348 L 197 344 L 196 341 L 196 339 L 194 338 L 192 332 L 186 329 L 182 329 L 180 333 Q 181 335 178 334 L 173 351 Q 174 354 171 353 L 170 358 L 170 362 L 168 366 Q 169 369 166 368 L 167 372 Q 163 373 166 375 L 164 384 L 162 385 L 163 387 L 161 388 L 162 390 Q 158 391 161 393 L 157 408 L 157 410 L 155 413 L 156 415 Q 157 419 154 421 L 154 426 L 152 430 Q 155 431 153 437 L 157 441 Q 159 440 158 443 Q 159 445 161 443 L 162 444 L 171 444 L 173 444 L 173 443 L 177 440 L 184 431 Q 183 428 186 429 L 185 428 L 188 427 L 187 426 L 193 419 Q 192 416 195 417 L 196 414 L 199 412 L 198 411 L 200 411 L 202 407 L 204 404 L 211 398 L 212 399 L 209 413 L 209 415 L 208 419 L 208 421 L 209 424 L 207 428 L 208 431 L 208 433 L 213 439 Q 212 442 215 441 L 216 440 L 220 444 L 221 443 L 223 444 L 224 446 L 231 444 L 232 445 Q 231 442 234 443 L 240 435 L 243 432 L 242 431 L 243 429 L 247 426 L 246 424 L 253 411 L 258 406 L 259 401 L 262 399 L 263 395 L 273 381 Q 272 378 275 379 L 274 378 L 276 377 L 277 375 L 277 372 L 279 372 Q 278 369 281 370 L 280 369 Q 281 365 286 365 L 285 364 L 287 361 Q 286 358 289 359 L 291 353 L 293 353 L 293 351 L 298 346 L 297 345 L 299 344 L 303 334 L 305 335 L 303 333 L 306 329 L 309 327 L 308 326 L 310 325 Q 311 322 309 323 Z " /><path desc="l 0 p 6" fill="rgb(0,0,0)" stroke="rgb(0,0,0)" stroke-width="1" opacity="0" d="M 418.5 226 L 421.5 227 L 424.5 226 L 426 228.5 Q 424.8 231 421 230 Q 422.1 232.7 419.5 232 L 409.5 235 L 408.5 234 L 404.5 238 L 397.5 239 L 395.5 241 L 396 239.5 L 398.5 236 L 404.5 233 L 407 234 Q 405.5 230.3 408.5 231 Q 410 227.5 411.5 230 L 414.5 228 L 415.5 230 L 418.5 226 Z " /><path desc="l 0 p 10" fill="rgb(0,0,0)" stroke="rgb(0,0,0)" stroke-width="1" opacity="0" d="M 316.5 387 L 319 387.5 L 316.5 391 L 314.5 390 L 312.5 393 L 298 399 L 297 396.5 L 299 396.5 L 301.5 393 L 303.5 393 L 310.5 388 Q 315.2 389.3 316.5 387 Z " /><path desc="l 0 p 11" fill="rgb(0,0,0)" stroke="rgb(0,0,0)" stroke-width="1" opacity="0" d="M 395.5 388 L 398.5 389 L 400.5 388 L 402 390.5 L 401.5 392 L 403 392.5 L 401 395.5 L 401.5 397 L 399 398.5 L 399.5 400 L 398 400.5 Q 400.7 402.2 396.5 404 L 395 404.5 Q 397.8 406.3 393.5 408 Q 391.3 407.3 392 409.5 L 385 414.5 L 385.5 416 L 377 420 Q 378.1 422.7 375.5 422 L 373.5 423 Q 372.2 420.8 371 423.5 Q 371.8 426.1 368.5 425 L 362.5 427 L 358.5 427 L 356.5 428 L 355 425.5 L 367.5 408 L 369 408 L 369 405 Q 371.7 406.1 371 403.5 L 379.5 396 L 383 395 L 383.5 393 L 384.5 394 Q 386.3 390.9 388 392.5 Q 387.3 390.3 389.5 391 L 395.5 388 Z " /><path desc="l 0 p 14" fill="rgb(0,0,0)" stroke="rgb(0,0,0)" stroke-width="1" opacity="0" d="M 338 413 L 341 414.5 Q 339.5 417.5 338 414.5 L 338 413 Z " /><path desc="l 2 p 0" fill="rgb(254,254,254)" stroke="rgb(254,254,254)" stroke-width="1" opacity="0.984313725490196" d="M 543.5 150 L 546.5 150 L 557.5 155 L 562 158.5 L 562 161.5 L 557 170.5 L 521 225.5 L 486 285.5 L 482.5 289 L 476.5 290 L 469 286 L 467 282.5 L 467 279.5 Q 505.4 219.4 539 154.5 L 543.5 150 Z " /><path desc="l 2 p 1" fill="rgb(254,254,254)" stroke="rgb(254,254,254)" stroke-width="1" opacity="0.984313725490196" d="M 159.5 154 L 167.5 154 L 176 160.5 L 179 164.5 L 179 168.5 L 174.5 174 L 161.5 184 L 156.5 186 L 155 183.5 L 157 180.5 L 155.5 180 L 132.5 195 L 127 200.5 Q 125.9 203.8 128.5 203 L 134.5 206 Q 154.5 209 170.5 216 Q 178.6 218.9 183 225.5 L 187 235.5 L 187 244.5 Q 184.9 252.8 178.5 257 Q 166.6 266.1 151.5 272 L 121.5 282 L 90.5 288 L 64.5 289 Q 63.3 286.7 58.5 288 L 51 284.5 L 53.5 283 L 58.5 283 L 82.5 277 L 109 268.5 L 104.5 268 L 93.5 271 L 79.5 271 L 78.5 269 L 121.5 257 L 151.5 243 L 162 235.5 Q 163.1 232.2 160.5 233 L 153.5 230 L 117.5 223 L 110.5 220 L 104 213.5 Q 97.8 206.2 97 193.5 L 102.5 187 Q 128.2 167.7 159.5 154 Z M 110 267 L 110 268 L 113 268 L 110 267 Z " /><path desc="l 2 p 2" fill="rgb(254,254,254)" stroke="rgb(254,254,254)" stroke-width="1" opacity="0.984313725490196" d="M 302.5 204 Q 310.5 206.5 315 212.5 L 316 217.5 L 298 241.5 L 298 243.5 L 303.5 239 L 306.5 237 Q 322.8 220.8 347.5 213 L 356.5 216 L 361 220.5 L 362 224.5 Q 346.9 257.4 327.5 286 Q 323.8 286.8 323 284.5 L 319 278.5 L 319 272.5 Q 325 254 334 238.5 L 332.5 239 Q 304.5 255.5 284 279.5 L 277.5 287 L 271.5 288 L 261 279.5 L 261 276.5 Q 274.6 255.1 285 230.5 L 300.5 205 L 302.5 204 Z " /><path desc="l 2 p 3" fill="rgb(254,254,254)" stroke="rgb(254,254,254)" stroke-width="1" opacity="0.984313725490196" d="M 412.5 209 Q 421.4 207.6 426.5 210 Q 439.5 216 448 226.5 L 449 233.5 L 440.5 241 L 426.5 248 L 409.5 254 L 402.5 255 L 399.5 257 L 386.5 259 L 381.5 256 Q 377.5 260.5 377 268.5 L 381.5 274 L 390.5 273 L 418.5 264 L 456.5 254 L 455.5 256 L 419 272.5 L 421.5 273 L 441.5 267 L 441.5 268 Q 425.7 278.7 405.5 285 L 392.5 288 L 379.5 288 Q 369.1 284.9 363 277.5 L 359 267.5 L 359 260.5 Q 365 238.5 380.5 226 Q 393.7 214.7 412.5 209 Z M 421 225 Q 403 230 391 242 L 392 243 L 421 233 L 430 227 L 429 225 L 421 225 Z " /><path desc="l 2 p 4" fill="rgb(254,254,254)" stroke="rgb(254,254,254)" stroke-width="1" opacity="0.984313725490196" d="M 268.5 211 Q 270.8 210.3 270 212.5 L 271 216 L 280 213 L 279 219.5 L 274 229.5 L 258 256.5 L 220 315.5 L 209.5 329 L 206.5 329 L 196 320.5 L 197 315.5 L 229 269.5 L 226.5 271 L 212.5 280 L 206.5 280 Q 199.1 277.4 195 271.5 Q 190.5 266 192 254.5 L 196 236.5 L 201 223.5 L 207.5 213 L 210.5 212 Q 217.3 214.3 221 219.5 L 221 223.5 L 212 241.5 L 209 255.5 Q 210 259 215.5 258 L 231.5 248 L 254 225.5 Q 253.3 223.3 255.5 224 L 266.5 212 L 268.5 211 Z " /><path desc="l 2 p 7" fill="rgb(254,254,254)" stroke="rgb(254,254,254)" stroke-width="1" opacity="0.984313725490196" d="M 389.5 305 Q 399.3 306.2 404 312.5 L 404 317.5 L 400 327.5 L 372 383.5 L 373.5 383 L 391.5 374 L 404.5 373 Q 411.9 375.1 416 380.5 L 421 388.5 L 421 399.5 Q 415 414.5 403.5 424 Q 392.2 434.7 376.5 441 L 365.5 444 L 351.5 444 Q 341.8 441.3 337 433.5 L 336 429.5 L 342 412.5 Q 366.3 361.8 387 307.5 L 389.5 305 Z M 397 387 Q 383 391 374 400 Q 362 411 354 426 L 356 429 L 370 426 L 386 417 L 400 402 L 403 396 L 403 390 Q 402 386 397 387 Z " /><path desc="l 2 p 8" fill="rgb(254,254,254)" stroke="rgb(254,254,254)" stroke-width="1" opacity="0.984313725490196" d="M 305.5 325 Q 307.8 324.3 307 326.5 L 296 341.5 L 300 339.5 L 271 380.5 L 255 405.5 L 242 430.5 L 233.5 442 Q 230.2 445.2 222.5 444 L 211 435.5 Q 208.1 430.9 209 422.5 L 210 421.5 L 210 412.5 L 214 392.5 L 210 395.5 L 180 434.5 L 172.5 442 Q 169.8 444.8 163.5 444 L 155 438.5 L 154 436.5 L 154 425.5 L 163 386.5 L 171 358.5 L 179 335.5 L 184.5 329 L 190 332.5 L 195 339.5 L 196 343.5 L 180 388.5 L 174 411.5 L 176 410.5 L 193 390 L 196 388.5 L 220.5 363 L 227.5 357 Q 229.8 354.3 235.5 355 Q 241.8 357.7 240 368.5 L 234 386.5 L 229 413.5 L 231 412.5 Q 257.8 370.8 291.5 336 L 305.5 325 Z " /><path desc="l 2 p 9" fill="rgb(254,254,254)" stroke="rgb(254,254,254)" stroke-width="1" opacity="0.984313725490196" d="M 307.5 371 Q 317.1 369.9 322.5 373 Q 331.3 377.3 337 384.5 L 338 389.5 Q 335.3 398.8 327.5 403 Q 312.9 413.9 288.5 415 L 285.5 413 Q 282 417 282 424.5 L 285.5 429 L 291.5 430 L 315.5 423 L 336.5 414 L 336 415.5 L 332.5 420 L 328 423.5 Q 328.8 425.8 326.5 425 Q 317.8 434.3 305.5 440 L 296.5 443 L 284.5 443 L 271 434.5 Q 264 428 266 412.5 Q 272.7 391.7 288.5 380 Q 296.3 373.8 307.5 371 Z M 315 386 L 301 393 L 294 401 Q 307 398 317 392 L 320 388 Q 319 385 315 386 Z " /><path desc="l 3 p 0" fill="rgb(251,251,251)" stroke="rgb(251,251,251)" stroke-width="1" opacity="0.2235294117647059" d="M 543.5 149 L 551.5 150 L 553 151.5 Q 552.3 153.8 554.5 153 L 559 155.5 L 557.5 155 L 546.5 150 L 543.5 150 L 539 153.5 L 543.5 149 Z " /><path desc="l 3 p 1" fill="rgb(251,251,251)" stroke="rgb(251,251,251)" stroke-width="1" opacity="0.2235294117647059" d="M 166.5 152 L 169 152.5 L 168.5 154 L 171.5 156 L 173 155.5 L 175.5 159 Q 177.8 158.3 177 160.5 L 180 164.5 L 180 167.5 L 179 167.5 L 179 164.5 L 173.5 158 Q 169.8 152.7 160 153.5 L 166.5 152 Z " /><path desc="l 3 p 2" fill="rgb(251,251,251)" stroke="rgb(251,251,251)" stroke-width="1" opacity="0.2235294117647059" d="M 155.5 154 L 157.5 154 L 159 154.5 L 156.5 156 L 155.5 154 Z " /><path desc="l 3 p 3" fill="rgb(251,251,251)" stroke="rgb(251,251,251)" stroke-width="1" opacity="0.2235294117647059" d="M 152.5 155 L 155 156.5 L 149.5 159 L 149.5 158 Q 151.8 158.8 151 156.5 L 152.5 155 Z " /><path desc="l 3 p 4" fill="rgb(251,251,251)" stroke="rgb(251,251,251)" stroke-width="1" opacity="0.2235294117647059" d="M 561.5 155 Q 559.9 156.8 563 158.5 L 562.5 161 L 560 156.5 L 561.5 155 Z " /><path desc="l 3 p 5" fill="rgb(251,251,251)" stroke="rgb(251,251,251)" stroke-width="1" opacity="0.2235294117647059" d="M 537.5 157 L 537 158.5 L 534.5 163 L 534 160.5 L 537.5 157 Z " /><path desc="l 3 p 6" fill="rgb(251,251,251)" stroke="rgb(251,251,251)" stroke-width="1" opacity="0.2235294117647059" d="M 145.5 159 L 148 159.5 L 142.5 163 L 142 161 L 145.5 159 Z " /><path desc="l 3 p 7" fill="rgb(251,251,251)" stroke="rgb(251,251,251)" stroke-width="1" opacity="0.2235294117647059" d="M 561.5 162 L 562 163.5 L 560 164.5 L 561.5 162 Z " /><path desc="l 3 p 8" fill="rgb(251,251,251)" stroke="rgb(251,251,251)" stroke-width="1" opacity="0.2235294117647059" d="M 139.5 163 L 141 163.5 L 136.5 166 L 136 164 L 139.5 163 Z " /><path desc="l 3 p 9" fill="rgb(251,251,251)" stroke="rgb(251,251,251)" stroke-width="1" opacity="0.2235294117647059" d="M 533.5 164 L 533 165.5 L 531.5 169 L 531 167.5 L 531.5 166 L 530 165.5 L 533.5 164 Z " /><path desc="l 3 p 10" fill="rgb(251,251,251)" stroke="rgb(251,251,251)" stroke-width="1" opacity="0.2235294117647059" d="M 134.5 165 L 135 167 L 132.5 168 L 134.5 165 Z " /><path desc="l 3 p 11" fill="rgb(251,251,251)" stroke="rgb(251,251,251)" stroke-width="1" opacity="0.2235294117647059" d="M 559.5 166 L 561 166.5 L 559 167 L 557 171.5 Q 559.3 172.8 556.5 174 L 553.5 176 L 555 173.5 L 559.5 166 Z " /><path desc="l 3 p 15" fill="rgb(251,251,251)" stroke="rgb(251,251,251)" stroke-width="1" opacity="0.2235294117647059" d="M 124.5 171 L 126 171.5 L 122.5 174 L 124.5 171 Z " /><path desc="l 3 p 16" fill="rgb(251,251,251)" stroke="rgb(251,251,251)" stroke-width="1" opacity="0.2235294117647059" d="M 176.5 172 L 173.5 176 Q 170.9 175.3 172 178 L 169.5 178 L 168 181 L 163 183.5 Q 165.3 184.8 162.5 186 L 160.5 185 L 160 187 L 155 187 L 155 185.5 L 153 185.5 L 152.5 183 L 150 184.5 L 150.5 186 L 144 188 Q 145.3 191 141.5 190 L 138.5 192 L 138.5 191 L 156.5 180 L 156 181.5 Q 156.8 183.8 154.5 183 L 156.5 186 L 161.5 184 L 176.5 172 Z " /><path desc="l 3 p 17" fill="rgb(251,251,251)" stroke="rgb(251,251,251)" stroke-width="1" opacity="0.2235294117647059" d="M 120.5 173 L 121 174.5 Q 119.5 177.5 118 174.5 L 120.5 173 Z " /><path desc="l 3 p 18" fill="rgb(251,251,251)" stroke="rgb(251,251,251)" stroke-width="1" opacity="0.2235294117647059" d="M 527.5 173 L 529 173.5 L 524.5 181 L 523 181.5 L 523 183.5 L 518.5 192 L 517 188.5 L 521 186.5 L 520.5 185 L 522 184.5 L 522 182.5 L 526 176.5 Q 523.3 174.8 527.5 173 Z " /><path desc="l 3 p 19" fill="rgb(251,251,251)" stroke="rgb(251,251,251)" stroke-width="1" opacity="0.2235294117647059" d="M 117.5 176 L 116.5 178 L 113.5 180 L 111 178.5 L 117.5 176 Z " /><path desc="l 3 p 20" fill="rgb(251,251,251)" stroke="rgb(251,251,251)" stroke-width="1" opacity="0.2235294117647059" d="M 551.5 179 Q 554.5 180.5 551.5 182 L 549 183.5 L 547 187.5 L 548 189.5 Q 545.5 187.7 543 192.5 Q 544.1 195.8 541.5 195 L 542 193.5 L 551.5 179 Z " /><path desc="l 3 p 21" fill="rgb(251,251,251)" stroke="rgb(251,251,251)" stroke-width="1" opacity="0.2235294117647059" d="M 111.5 180 L 110.5 182 L 107.5 184 L 109.5 181 L 111.5 180 Z " /><path desc="l 3 p 22" fill="rgb(251,251,251)" stroke="rgb(251,251,251)" stroke-width="1" opacity="0.2235294117647059" d="M 105.5 183 L 106 184.5 L 98 191.5 L 97.5 193 L 97 191.5 L 99 188 L 104 186 L 105.5 183 Z " /><path desc="l 3 p 23" fill="rgb(251,251,251)" stroke="rgb(251,251,251)" stroke-width="1" opacity="0.2235294117647059" d="M 516.5 192 Q 519.3 193.3 517 194.5 L 515.5 197 L 516 195.5 L 516.5 192 Z " /><path desc="l 3 p 24" fill="rgb(251,251,251)" stroke="rgb(251,251,251)" stroke-width="1" opacity="0.2235294117647059" d="M 135.5 193 L 137 193.5 L 135 194 L 134.5 196 L 134 194.5 L 135.5 193 Z " /><path desc="l 3 p 25" fill="rgb(251,251,251)" stroke="rgb(251,251,251)" stroke-width="1" opacity="0.2235294117647059" d="M 96.5 194 L 97 197 L 95 196.5 L 96.5 194 Z " /><path desc="l 3 p 26" fill="rgb(251,251,251)" stroke="rgb(251,251,251)" stroke-width="1" opacity="0.2235294117647059" d="M 132.5 195 L 130 198.5 L 131 200.5 L 128 201.5 L 130 202 L 129.5 204 L 127 203 L 127 200.5 L 132.5 195 Z " /><path desc="l 3 p 27" fill="rgb(251,251,251)" stroke="rgb(251,251,251)" stroke-width="1" opacity="0.2235294117647059" d="M 540.5 196 L 539 198.5 L 538 200.5 L 539 201.5 L 536 204.5 L 534.5 207 L 533 206.5 L 540.5 196 Z " /><path desc="l 3 p 28" fill="rgb(251,251,251)" stroke="rgb(251,251,251)" stroke-width="1" opacity="0.2235294117647059" d="M 96 198 Q 99 196.8 98 200.5 L 96 199.5 L 96 198 Z " /><path desc="l 3 p 29" fill="rgb(251,251,251)" stroke="rgb(251,251,251)" stroke-width="1" opacity="0.2235294117647059" d="M 512.5 200 L 514 200.5 L 511.5 204 L 511 201.5 L 512.5 200 Z " /><path desc="l 3 p 30" fill="rgb(251,251,251)" stroke="rgb(251,251,251)" stroke-width="1" opacity="0.2235294117647059" d="M 98.5 202 L 102 209.5 L 100.5 209 L 99 208.5 L 99 206.5 L 98.5 202 Z " /><path desc="l 3 p 31" fill="rgb(251,251,251)" stroke="rgb(251,251,251)" stroke-width="1" opacity="0.2235294117647059" d="M 131.5 202 L 137 205.5 L 134.5 206 L 131 204.5 L 131.5 202 Z " /><path desc="l 3 p 32" fill="rgb(251,251,251)" stroke="rgb(251,251,251)" stroke-width="1" opacity="0.2235294117647059" d="M 301.5 202 L 301.5 205 L 299.5 206 L 300 204.5 L 301.5 202 Z " /><path desc="l 3 p 33" fill="rgb(251,251,251)" stroke="rgb(251,251,251)" stroke-width="1" opacity="0.2235294117647059" d="M 303.5 204 L 306.5 205 L 308 204.5 Q 308.8 206.8 306.5 206 L 303.5 205 L 303.5 204 Z " /><path desc="l 3 p 34" fill="rgb(251,251,251)" stroke="rgb(251,251,251)" stroke-width="1" opacity="0.2235294117647059" d="M 510.5 205 L 510 206.5 L 506.5 213 L 506 211.5 Q 509 210.3 508 206 L 510.5 205 Z " /><path desc="l 3 p 35" fill="rgb(251,251,251)" stroke="rgb(251,251,251)" stroke-width="1" opacity="0.2235294117647059" d="M 142.5 206 L 145.5 207 Q 150.1 206.4 151.5 209 L 151.5 207 L 154 207.5 L 153 210 L 142 208 L 142.5 206 Z " /><path desc="l 3 p 36" fill="rgb(251,251,251)" stroke="rgb(251,251,251)" stroke-width="1" opacity="0.2235294117647059" d="M 415.5 206 L 419.5 208 L 425.5 207 L 428.5 211 L 433 212 L 432.5 214 L 423.5 209 L 413.5 209 L 412 207.5 L 415.5 206 Z " /><path desc="l 3 p 37" fill="rgb(251,251,251)" stroke="rgb(251,251,251)" stroke-width="1" opacity="0.2235294117647059" d="M 297 207 L 299 207.5 L 296.5 211 L 296 209.5 L 297 207 Z " /><path desc="l 3 p 38" fill="rgb(251,251,251)" stroke="rgb(251,251,251)" stroke-width="1" opacity="0.2235294117647059" d="M 309.5 207 Q 313.5 206.5 314 209.5 Q 313.3 212.1 316 211 L 316 213.5 L 317 217.5 L 315 218.5 L 316 214.5 L 310.5 208 L 309.5 207 Z " /><path desc="l 3 p 39" fill="rgb(251,251,251)" stroke="rgb(251,251,251)" stroke-width="1" opacity="0.2235294117647059" d="M 409 208 L 412 209.5 L 409 210 L 409 208 Z " /><path desc="l 3 p 40" fill="rgb(251,251,251)" stroke="rgb(251,251,251)" stroke-width="1" opacity="0.2235294117647059" d="M 269.5 210 L 272.5 215 L 273.5 213 L 274.5 215 L 271 216 L 269.5 210 Z " /><path desc="l 3 p 41" fill="rgb(251,251,251)" stroke="rgb(251,251,251)" stroke-width="1" opacity="0.2235294117647059" d="M 406.5 210 L 408 210.5 L 394.5 217 L 395.5 215 Q 397.8 215.8 397 213.5 L 399.5 213 L 406.5 210 Z " /><path desc="l 3 p 42" fill="rgb(251,251,251)" stroke="rgb(251,251,251)" stroke-width="1" opacity="0.2235294117647059" d="M 531.5 210 L 533 210.5 L 531 211 L 522 225.5 L 522.5 227 L 521 227 Q 522.5 230.8 519.5 230 L 520 228.5 L 531.5 210 Z " /><path desc="l 3 p 43" fill="rgb(251,251,251)" stroke="rgb(251,251,251)" stroke-width="1" opacity="0.2235294117647059" d="M 102.5 211 L 110.5 220 L 115 221.5 L 112.5 222 L 107.5 218 L 105 219 L 106 216.5 L 103 215.5 L 103 213.5 L 102.5 211 Z " /><path desc="l 3 p 44" fill="rgb(251,251,251)" stroke="rgb(251,251,251)" stroke-width="1" opacity="0.2235294117647059" d="M 157.5 211 L 163.5 213 L 165 212.5 Q 165.8 214.8 163.5 214 L 157.5 212 L 157.5 211 Z " /><path desc="l 3 p 45" fill="rgb(251,251,251)" stroke="rgb(251,251,251)" stroke-width="1" opacity="0.2235294117647059" d="M 207.5 211 L 210 211.5 L 206 214.5 L 204.5 217 L 205 215.5 L 207.5 211 Z " /><path desc="l 3 p 46" fill="rgb(251,251,251)" stroke="rgb(251,251,251)" stroke-width="1" opacity="0.2235294117647059" d="M 277.5 211 L 281 212.5 L 280.5 216 L 280 213 L 276 214 L 277.5 211 Z " /><path desc="l 3 p 47" fill="rgb(251,251,251)" stroke="rgb(251,251,251)" stroke-width="1" opacity="0.2235294117647059" d="M 345.5 211 L 347 214 Q 343.2 215.5 344 212.5 L 345.5 211 Z " /><path desc="l 3 p 48" fill="rgb(251,251,251)" stroke="rgb(251,251,251)" stroke-width="1" opacity="0.2235294117647059" d="M 348.5 211 L 352 212 Q 353.3 215.3 348.5 214 L 348.5 211 Z " /><path desc="l 3 p 49" fill="rgb(251,251,251)" stroke="rgb(251,251,251)" stroke-width="1" opacity="0.2235294117647059" d="M 211.5 212 Q 215.5 211.5 216 214.5 L 213.5 213 Q 210.5 213.5 211.5 212 Z " /><path desc="l 3 p 50" fill="rgb(251,251,251)" stroke="rgb(251,251,251)" stroke-width="1" opacity="0.2235294117647059" d="M 265.5 212 L 258.5 220 L 259 218.5 L 259 217 L 261 217 Q 259.9 214.3 262.5 215 L 265.5 212 Z " /><path desc="l 3 p 51" fill="rgb(251,251,251)" stroke="rgb(251,251,251)" stroke-width="1" opacity="0.2235294117647059" d="M 295.5 212 L 295 213.5 L 293.5 216 L 293 214.5 L 295.5 212 Z " /><path desc="l 3 p 52" fill="rgb(251,251,251)" stroke="rgb(251,251,251)" stroke-width="1" opacity="0.2235294117647059" d="M 166 213 Q 169 212 168 215 L 170.5 215 L 173.5 217 L 175 216.5 Q 174.3 218.8 176.5 218 L 182 222.5 L 185 228.5 L 184 228.5 Q 182.4 221.6 176.5 219 L 166 215 L 166 213 Z " /><path desc="l 3 p 53" fill="rgb(251,251,251)" stroke="rgb(251,251,251)" stroke-width="1" opacity="0.2235294117647059" d="M 340.5 213 L 343 214.5 L 337.5 217 L 338.5 215 Q 341 215.7 340.5 213 Z " /><path desc="l 3 p 54" fill="rgb(251,251,251)" stroke="rgb(251,251,251)" stroke-width="1" opacity="0.2235294117647059" d="M 354.5 213 L 356 213.5 L 355.5 215 L 360 216.5 L 359 217.5 L 360.5 220 L 353 214.5 L 354.5 213 Z " /><path desc="l 3 p 55" fill="rgb(251,251,251)" stroke="rgb(251,251,251)" stroke-width="1" opacity="0.2235294117647059" d="M 504.5 213 Q 507.3 214.3 505 215.5 L 494.5 234 L 493 231.5 L 496 230.5 L 497 225 L 500 223.5 L 499.5 222 L 501 221.5 L 500.5 220 Q 503.5 220.7 502 217 L 504 217 L 504.5 213 Z " /><path desc="l 3 p 56" fill="rgb(251,251,251)" stroke="rgb(251,251,251)" stroke-width="1" opacity="0.2235294117647059" d="M 434.5 214 L 443 219 L 443 221 Q 445.7 219.9 445 222.5 L 449 225 L 450 234.5 L 444.5 239 L 449 233.5 L 448 226.5 L 439.5 218 Q 434.9 216.8 434.5 214 Z " /><path desc="l 3 p 57" fill="rgb(251,251,251)" stroke="rgb(251,251,251)" stroke-width="1" opacity="0.2235294117647059" d="M 217.5 215 L 222 219.5 L 222 223.5 L 219.5 227 L 220 225.5 L 221 219.5 L 217.5 215 Z " /><path desc="l 3 p 58" fill="rgb(251,251,251)" stroke="rgb(251,251,251)" stroke-width="1" opacity="0.2235294117647059" d="M 332.5 216 L 333.5 218 L 335.5 217 L 335.5 218 L 327.5 222 L 328.5 220 L 332 219 L 332.5 216 Z " /><path desc="l 3 p 59" fill="rgb(251,251,251)" stroke="rgb(251,251,251)" stroke-width="1" opacity="0.2235294117647059" d="M 391.5 216 Q 393.8 215.3 393 217.5 L 388.5 220 L 388.5 219 Q 390.8 219.8 390 217.5 L 391.5 216 Z " /><path desc="l 3 p 60" fill="rgb(251,251,251)" stroke="rgb(251,251,251)" stroke-width="1" opacity="0.2235294117647059" d="M 279.5 217 L 280 219.5 L 279.5 222 L 277.5 223 L 278 221.5 L 279.5 217 Z " /><path desc="l 3 p 61" fill="rgb(251,251,251)" stroke="rgb(251,251,251)" stroke-width="1" opacity="0.2235294117647059" d="M 203.5 218 L 203 219.5 L 201.5 223 L 201 221.5 L 203.5 218 Z " /><path desc="l 3 p 62" fill="rgb(251,251,251)" stroke="rgb(251,251,251)" stroke-width="1" opacity="0.2235294117647059" d="M 291.5 219 L 291 220.5 L 289.5 223 L 289 221.5 L 291.5 219 Z " /><path desc="l 3 p 63" fill="rgb(251,251,251)" stroke="rgb(251,251,251)" stroke-width="1" opacity="0.2235294117647059" d="M 256.5 220 L 257 222.5 L 255 223.5 L 256.5 220 Z " /><path desc="l 3 p 64" fill="rgb(251,251,251)" stroke="rgb(251,251,251)" stroke-width="1" opacity="0.2235294117647059" d="M 314.5 220 L 313 222.5 Q 313.8 224.8 311.5 224 L 314.5 220 Z " /><path desc="l 3 p 65" fill="rgb(251,251,251)" stroke="rgb(251,251,251)" stroke-width="1" opacity="0.2235294117647059" d="M 386.5 220 L 387 221.5 L 381.5 226 L 382 224.5 L 383.5 222 Q 387 223 386.5 220 Z " /><path desc="l 3 p 66" fill="rgb(251,251,251)" stroke="rgb(251,251,251)" stroke-width="1" opacity="0.2235294117647059" d="M 116.5 222 L 125 224.5 L 121.5 225 L 118.5 224 L 117 224.5 L 116.5 222 Z " /><path desc="l 3 p 67" fill="rgb(251,251,251)" stroke="rgb(251,251,251)" stroke-width="1" opacity="0.2235294117647059" d="M 324 222 L 326 222.5 L 324 223.5 L 324 222 Z " /><path desc="l 3 p 68" fill="rgb(251,251,251)" stroke="rgb(251,251,251)" stroke-width="1" opacity="0.2235294117647059" d="M 253.5 223 L 254 225.5 L 231.5 248 L 230 246.5 L 230.5 244 L 234 245 Q 232.9 242.3 235.5 243 L 236.5 241 L 235 240.5 L 236.5 240 L 238 240.5 L 240 236 L 252 226.5 L 251.5 225 Q 254 225.7 253.5 223 Z " /><path desc="l 3 p 69" fill="rgb(251,251,251)" stroke="rgb(251,251,251)" stroke-width="1" opacity="0.2235294117647059" d="M 286.5 223 L 289 224.5 L 285.5 230 L 284 229.5 L 286 229 L 287 224.5 L 286.5 223 Z " /><path desc="l 3 p 70" fill="rgb(251,251,251)" stroke="rgb(251,251,251)" stroke-width="1" opacity="0.2235294117647059" d="M 199.5 224 Q 201.8 223.3 201 225.5 L 199 225.5 L 200 227.5 L 197.5 234 L 197 230.5 L 198 227.5 L 199.5 224 Z " /><path desc="l 3 p 71" fill="rgb(251,251,251)" stroke="rgb(251,251,251)" stroke-width="1" opacity="0.2235294117647059" d="M 321.5 224 L 323 224.5 L 305 237 Q 306.1 239.7 303.5 239 L 298 243.5 L 298 241.5 L 303.5 234 L 304.5 237 L 305 235 L 310 232.5 L 309 230.5 L 312.5 231 L 316.5 227 L 321.5 224 Z " /><path desc="l 3 p 72" fill="rgb(251,251,251)" stroke="rgb(251,251,251)" stroke-width="1" opacity="0.2235294117647059" d="M 126.5 225 L 130 226.5 L 129.5 228 L 126.5 225 Z " /><path desc="l 3 p 74" fill="rgb(251,251,251)" stroke="rgb(251,251,251)" stroke-width="1" opacity="0.2235294117647059" d="M 361.5 225 L 362 228.5 L 359.5 232 L 360 230.5 L 361.5 225 Z " /><path desc="l 3 p 75" fill="rgb(251,251,251)" stroke="rgb(251,251,251)" stroke-width="1" opacity="0.2235294117647059" d="M 420.5 225 L 428.5 225 L 430 226.5 Q 426.4 231.5 419.5 233 L 417 231.5 L 418.5 231 L 421 232 Q 419.7 228.7 424.5 230 L 426 227.5 L 422.5 226 Q 420.7 228.5 420.5 225 Z " /><path desc="l 3 p 76" fill="rgb(251,251,251)" stroke="rgb(251,251,251)" stroke-width="1" opacity="0.2235294117647059" d="M 132 226 L 145 228.5 Q 143.8 231.3 142.5 229 L 139.5 228 L 137.5 228 L 133.5 227 L 132.5 229 L 132 226 Z " /><path desc="l 3 p 77" fill="rgb(251,251,251)" stroke="rgb(251,251,251)" stroke-width="1" opacity="0.2235294117647059" d="M 275.5 226 L 276 227.5 L 274 228.5 L 275.5 226 Z " /><path desc="l 3 p 78" fill="rgb(251,251,251)" stroke="rgb(251,251,251)" stroke-width="1" opacity="0.2235294117647059" d="M 379.5 226 L 373.5 233 L 372 232.5 L 376 229.5 L 377.5 227 L 379.5 226 Z " /><path desc="l 3 p 79" fill="rgb(251,251,251)" stroke="rgb(251,251,251)" stroke-width="1" opacity="0.2235294117647059" d="M 416.5 226 L 418 226.5 L 417.5 229 L 416 228.5 L 415.5 230 L 414.5 228 L 411 230 Q 409.9 227.3 412.5 228 L 416.5 226 Z " /><path desc="l 3 p 80" fill="rgb(251,251,251)" stroke="rgb(251,251,251)" stroke-width="1" opacity="0.2235294117647059" d="M 307.5 229 L 306 231.5 L 305.5 233 L 305 231.5 L 307.5 229 Z " /><path desc="l 3 p 81" fill="rgb(251,251,251)" stroke="rgb(251,251,251)" stroke-width="1" opacity="0.2235294117647059" d="M 409.5 229 L 408.5 231 L 407 231 Q 408.5 234.7 405.5 234 L 402.5 235 L 399.5 236 L 400.5 234 L 409.5 229 Z " /><path desc="l 3 p 82" fill="rgb(251,251,251)" stroke="rgb(251,251,251)" stroke-width="1" opacity="0.2235294117647059" d="M 150.5 230 L 160 232 L 160.5 234 L 162 233.5 L 160.5 237 Q 157.2 235.9 158 238.5 L 157 238.5 L 160 234.5 L 156.5 232 L 152.5 234 L 151 233.5 L 152 232.5 L 150.5 230 Z " /><path desc="l 3 p 83" fill="rgb(251,251,251)" stroke="rgb(251,251,251)" stroke-width="1" opacity="0.2235294117647059" d="M 217 230 L 219 230.5 L 216 232.5 L 217 230 Z " /><path desc="l 3 p 84" fill="rgb(251,251,251)" stroke="rgb(251,251,251)" stroke-width="1" opacity="0.2235294117647059" d="M 273.5 230 L 273 231.5 L 267.5 241 L 268 239.5 L 273.5 230 Z " /><path desc="l 3 p 85" fill="rgb(251,251,251)" stroke="rgb(251,251,251)" stroke-width="1" opacity="0.2235294117647059" d="M 284.5 231 L 285 232.5 L 280.5 240 L 280 238.5 L 282.5 232 L 284 232.5 L 284.5 231 Z " /><path desc="l 3 p 86" fill="rgb(251,251,251)" stroke="rgb(251,251,251)" stroke-width="1" opacity="0.2235294117647059" d="M 518.5 231 L 519 233 L 517 232.5 L 518.5 231 Z " /><path desc="l 3 p 87" fill="rgb(251,251,251)" stroke="rgb(251,251,251)" stroke-width="1" opacity="0.2235294117647059" d="M 186.5 232 L 187 234.5 L 186 234.5 L 186.5 232 Z " /><path desc="l 3 p 88" fill="rgb(251,251,251)" stroke="rgb(251,251,251)" stroke-width="1" opacity="0.2235294117647059" d="M 358.5 233 L 358 234.5 L 355.5 239 L 356 237.5 L 358.5 233 Z " /><path desc="l 3 p 89" fill="rgb(251,251,251)" stroke="rgb(251,251,251)" stroke-width="1" opacity="0.2235294117647059" d="M 416.5 233 L 418 233.5 L 405.5 238 L 404.5 236 L 405.5 237 L 408.5 234 L 409.5 235 L 416.5 233 Z " /><path desc="l 3 p 90" fill="rgb(251,251,251)" stroke="rgb(251,251,251)" stroke-width="1" opacity="0.2235294117647059" d="M 195.5 234 Q 198.3 235.2 196 236.5 Q 197.3 241.3 194 240 L 195.5 234 Z " /><path desc="l 3 p 91" fill="rgb(251,251,251)" stroke="rgb(251,251,251)" stroke-width="1" opacity="0.2235294117647059" d="M 371.5 235 L 369 238.5 L 367.5 241 L 368 239.5 L 371.5 235 Z " /><path desc="l 3 p 92" fill="rgb(251,251,251)" stroke="rgb(251,251,251)" stroke-width="1" opacity="0.2235294117647059" d="M 492.5 235 L 494 235.5 L 491.5 237 L 492.5 235 Z " /><path desc="l 3 p 93" fill="rgb(251,251,251)" stroke="rgb(251,251,251)" stroke-width="1" opacity="0.2235294117647059" d="M 397.5 236 L 396 238.5 L 396.5 240 L 403.5 238 L 403.5 239 L 396.5 241 L 395 240.5 Q 395.8 243.1 392.5 242 L 391 242.5 L 392.5 240 L 397.5 236 Z " /><path desc="l 3 p 94" fill="rgb(251,251,251)" stroke="rgb(251,251,251)" stroke-width="1" opacity="0.2235294117647059" d="M 515.5 236 L 515 237.5 Q 517.1 243.3 512.5 242 L 511 242.5 L 515.5 236 Z " /><path desc="l 3 p 95" fill="rgb(251,251,251)" stroke="rgb(251,251,251)" stroke-width="1" opacity="0.2235294117647059" d="M 333.5 238 L 334 240 L 331 240.5 L 333 241.5 L 323.5 261 L 323 259.5 L 329 246.5 L 328.5 245 L 330 245.5 L 331 243.5 L 327.5 243 L 322 246.5 L 322.5 248 L 319.5 248 L 310 256.5 L 309.5 258 L 308.5 257 L 305 259.5 Q 317.5 247 333.5 238 Z " /><path desc="l 3 p 96" fill="rgb(251,251,251)" stroke="rgb(251,251,251)" stroke-width="1" opacity="0.2235294117647059" d="M 491.5 238 L 491 239.5 L 488.5 244 L 488 242.5 L 491.5 238 Z " /><path desc="l 3 p 97" fill="rgb(251,251,251)" stroke="rgb(251,251,251)" stroke-width="1" opacity="0.2235294117647059" d="M 151.5 239 L 154.5 240 L 156 239.5 L 153 240.5 L 151.5 243 L 141.5 248 L 142.5 246 L 152 240.5 L 151.5 239 Z " /><path desc="l 3 p 98" fill="rgb(251,251,251)" stroke="rgb(251,251,251)" stroke-width="1" opacity="0.2235294117647059" d="M 213 239 L 215 239.5 Q 211.5 241 214 242.5 L 211.5 246 L 211 244 L 213 243.5 L 212 241.5 L 213 239 Z " /><path desc="l 3 p 101" fill="rgb(251,251,251)" stroke="rgb(251,251,251)" stroke-width="1" opacity="0.2235294117647059" d="M 354.5 240 L 355 243 Q 352.3 241.9 353 244.5 L 349.5 250 L 350 248.5 L 354.5 240 Z " /><path desc="l 3 p 102" fill="rgb(251,251,251)" stroke="rgb(251,251,251)" stroke-width="1" opacity="0.2235294117647059" d="M 194.5 241 L 195 243.5 L 194 243.5 L 194.5 241 Z " /><path desc="l 3 p 103" fill="rgb(251,251,251)" stroke="rgb(251,251,251)" stroke-width="1" opacity="0.2235294117647059" d="M 439.5 241 L 440 243 L 437 242.5 L 439.5 241 Z " /><path desc="l 3 p 104" fill="rgb(251,251,251)" stroke="rgb(251,251,251)" stroke-width="1" opacity="0.2235294117647059" d="M 266.5 242 L 266 243.5 L 258.5 256 L 259 254.5 L 266.5 242 Z " /><path desc="l 3 p 105" fill="rgb(251,251,251)" stroke="rgb(251,251,251)" stroke-width="1" opacity="0.2235294117647059" d="M 366.5 242 L 366 243.5 L 364.5 246 L 365 244.5 L 366.5 242 Z " /><path desc="l 3 p 106" fill="rgb(251,251,251)" stroke="rgb(251,251,251)" stroke-width="1" opacity="0.2235294117647059" d="M 278.5 243 L 278 244.5 L 276.5 248 L 276 246.5 L 278.5 243 Z " /><path desc="l 3 p 107" fill="rgb(251,251,251)" stroke="rgb(251,251,251)" stroke-width="1" opacity="0.2235294117647059" d="M 435.5 243 L 434.5 245 L 431.5 246 L 431.5 245 L 435.5 243 Z " /><path desc="l 3 p 109" fill="rgb(251,251,251)" stroke="rgb(251,251,251)" stroke-width="1" opacity="0.2235294117647059" d="M 186.5 245 L 187 249 L 185 248.5 L 186.5 245 Z " /><path desc="l 3 p 110" fill="rgb(251,251,251)" stroke="rgb(251,251,251)" stroke-width="1" opacity="0.2235294117647059" d="M 193.5 245 L 194 247.5 L 192.5 254 L 192 248.5 L 193.5 245 Z " /><path desc="l 3 p 111" fill="rgb(251,251,251)" stroke="rgb(251,251,251)" stroke-width="1" opacity="0.2235294117647059" d="M 487.5 245 L 487 246.5 L 484.5 251 L 484 249.5 L 485 246 L 487.5 245 Z " /><path desc="l 3 p 112" fill="rgb(251,251,251)" stroke="rgb(251,251,251)" stroke-width="1" opacity="0.2235294117647059" d="M 429.5 246 L 430.5 248 L 427 247.5 L 429.5 246 Z " /><path desc="l 3 p 113" fill="rgb(251,251,251)" stroke="rgb(251,251,251)" stroke-width="1" opacity="0.2235294117647059" d="M 210.5 247 L 211 249.5 L 210 249.5 L 210.5 247 Z " /><path desc="l 3 p 114" fill="rgb(251,251,251)" stroke="rgb(251,251,251)" stroke-width="1" opacity="0.2235294117647059" d="M 362 247 L 364 247.5 L 361.5 253 L 361 250.5 L 362 247 Z " /><path desc="l 3 p 115" fill="rgb(251,251,251)" stroke="rgb(251,251,251)" stroke-width="1" opacity="0.2235294117647059" d="M 508 247 L 510 247.5 L 505.5 253 L 507 250.5 L 508 247 Z " /><path desc="l 3 p 116" fill="rgb(251,251,251)" stroke="rgb(251,251,251)" stroke-width="1" opacity="0.2235294117647059" d="M 136.5 248 L 138.5 248 L 140 248.5 L 132 252 L 132.5 250 L 134.5 250 Q 137 250.7 136.5 248 Z " /><path desc="l 3 p 117" fill="rgb(251,251,251)" stroke="rgb(251,251,251)" stroke-width="1" opacity="0.2235294117647059" d="M 228 248 L 230 248.5 L 217.5 257 L 218 255.5 L 218.5 253 L 220.5 253 L 228 249.5 L 228 248 Z " /><path desc="l 3 p 118" fill="rgb(251,251,251)" stroke="rgb(251,251,251)" stroke-width="1" opacity="0.2235294117647059" d="M 424.5 248 L 426 248.5 L 424 249 L 423.5 251 L 422.5 249 L 424.5 248 Z " /><path desc="l 3 p 119" fill="rgb(251,251,251)" stroke="rgb(251,251,251)" stroke-width="1" opacity="0.2235294117647059" d="M 184.5 250 L 185 251.5 L 180.5 258 L 179 256.5 L 184 251.5 L 184.5 250 Z " /><path desc="l 3 p 120" fill="rgb(251,251,251)" stroke="rgb(251,251,251)" stroke-width="1" opacity="0.2235294117647059" d="M 419.5 250 L 418.5 252 L 413.5 253 L 413.5 252 L 419.5 250 Z " /><path desc="l 3 p 121" fill="rgb(251,251,251)" stroke="rgb(251,251,251)" stroke-width="1" opacity="0.2235294117647059" d="M 209.5 251 L 211 254.5 L 210 255.5 L 211.5 258 Q 207.5 256.5 209.5 251 Z " /><path desc="l 3 p 122" fill="rgb(251,251,251)" stroke="rgb(251,251,251)" stroke-width="1" opacity="0.2235294117647059" d="M 273 251 L 275 251.5 L 271.5 257 L 272 255.5 L 273 251 Z " /><path desc="l 3 p 123" fill="rgb(251,251,251)" stroke="rgb(251,251,251)" stroke-width="1" opacity="0.2235294117647059" d="M 348.5 251 L 349.5 253 L 348 252.5 L 345.5 259 Q 343.3 258.3 344 260.5 L 342 261.5 L 348.5 251 Z " /><path desc="l 3 p 124" fill="rgb(251,251,251)" stroke="rgb(251,251,251)" stroke-width="1" opacity="0.2235294117647059" d="M 129.5 252 L 131 252.5 L 127.5 254 L 127.5 253 L 129.5 252 Z " /><path desc="l 3 p 125" fill="rgb(251,251,251)" stroke="rgb(251,251,251)" stroke-width="1" opacity="0.2235294117647059" d="M 457.5 252 Q 460.8 250.9 460 253.5 L 459 256 L 457 256.5 L 457.5 258 L 454.5 257 L 452 258 L 451.5 260 L 449.5 260 L 448 259.5 L 457 254.5 L 454.5 254 L 452.5 255 L 453.5 253 L 457.5 252 Z " /><path desc="l 3 p 126" fill="rgb(251,251,251)" stroke="rgb(251,251,251)" stroke-width="1" opacity="0.2235294117647059" d="M 483.5 252 L 482 254.5 L 469 275.5 L 467 282.5 L 469 286 L 476 289.5 L 474.5 290 L 472.5 289 L 471 289.5 L 470.5 288 L 469 288.5 Q 471.3 287.3 468.5 286 L 467 285.5 Q 469.3 284.3 466.5 283 L 464 284.5 L 465 281.5 L 466 279.5 L 465.5 278 L 467 278.5 L 472 267 Q 474.7 268.1 474 265.5 L 478 260.5 L 478 256 L 480 255.5 L 479.5 254 L 483.5 252 Z " /><path desc="l 3 p 127" fill="rgb(251,251,251)" stroke="rgb(251,251,251)" stroke-width="1" opacity="0.2235294117647059" d="M 124.5 253 Q 127.1 252.3 126 255 L 117.5 258 L 118.5 256 L 124.5 253 Z " /><path desc="l 3 p 128" fill="rgb(251,251,251)" stroke="rgb(251,251,251)" stroke-width="1" opacity="0.2235294117647059" d="M 410.5 253 Q 412.8 252.3 412 254.5 L 409.5 255 Q 404.7 253.3 406 257.5 L 403.5 256 L 401.5 258 Q 398.9 258.7 400 256 L 410.5 253 Z " /><path desc="l 3 p 129" fill="rgb(251,251,251)" stroke="rgb(251,251,251)" stroke-width="1" opacity="0.2235294117647059" d="M 359 254 Q 361.7 252.9 361 255.5 Q 358 259.8 359 267 L 356 265.5 L 358 262.5 L 358 260.5 L 359 254 Z " /><path desc="l 3 p 130" fill="rgb(251,251,251)" stroke="rgb(251,251,251)" stroke-width="1" opacity="0.2235294117647059" d="M 504.5 254 L 506 254.5 L 504 255.5 L 504.5 257 L 502.5 258 L 503 256.5 L 504.5 254 Z " /><path desc="l 3 p 131" fill="rgb(251,251,251)" stroke="rgb(251,251,251)" stroke-width="1" opacity="0.2235294117647059" d="M 448.5 255 L 451 255.5 L 442.5 258 L 442.5 257 L 448.5 255 Z " /><path desc="l 3 p 132" fill="rgb(251,251,251)" stroke="rgb(251,251,251)" stroke-width="1" opacity="0.2235294117647059" d="M 191.5 256 L 192 262.5 L 191 262.5 L 190 260.5 L 191.5 256 Z " /><path desc="l 3 p 133" fill="rgb(251,251,251)" stroke="rgb(251,251,251)" stroke-width="1" opacity="0.2235294117647059" d="M 381.5 256 Q 382.6 258.8 386 258 L 386.5 260 L 389.5 259 L 389.5 260 L 388 260.5 L 390 261.5 L 387.5 262 L 385 261.5 Q 385.7 258.9 383 260 L 382.5 262 L 382 260 L 379.5 261 L 380 259.5 L 381.5 256 Z M 382 258 L 383 260 Q 384 257 382 258 Z " /><path desc="l 3 p 134" fill="rgb(251,251,251)" stroke="rgb(251,251,251)" stroke-width="1" opacity="0.2235294117647059" d="M 177.5 257 L 176 259.5 L 175.5 261 L 175 259.5 L 177.5 257 Z " /><path desc="l 3 p 136" fill="rgb(251,251,251)" stroke="rgb(251,251,251)" stroke-width="1" opacity="0.2235294117647059" d="M 396.5 257 L 399 257.5 L 396.5 258 L 396.5 257 Z " /><path desc="l 3 p 137" fill="rgb(251,251,251)" stroke="rgb(251,251,251)" stroke-width="1" opacity="0.2235294117647059" d="M 111.5 258 L 113.5 258 L 116 258.5 L 107.5 261 L 107.5 260 L 111.5 258 Z " /><path desc="l 3 p 138" fill="rgb(251,251,251)" stroke="rgb(251,251,251)" stroke-width="1" opacity="0.2235294117647059" d="M 270.5 258 L 271 259.5 L 269 260.5 L 270.5 258 Z " /><path desc="l 3 p 140" fill="rgb(251,251,251)" stroke="rgb(251,251,251)" stroke-width="1" opacity="0.2235294117647059" d="M 391.5 258 L 395 258.5 L 391.5 259 L 391.5 258 Z " /><path desc="l 3 p 141" fill="rgb(251,251,251)" stroke="rgb(251,251,251)" stroke-width="1" opacity="0.2235294117647059" d="M 433.5 259 L 437 259.5 L 430.5 261 L 430.5 260 L 433.5 259 Z " /><path desc="l 3 p 142" fill="rgb(251,251,251)" stroke="rgb(251,251,251)" stroke-width="1" opacity="0.2235294117647059" d="M 173.5 260 L 174 261.5 L 172 262.5 L 173.5 260 Z " /><path desc="l 3 p 143" fill="rgb(251,251,251)" stroke="rgb(251,251,251)" stroke-width="1" opacity="0.2235294117647059" d="M 255.5 260 L 256.5 262 L 253.5 264 L 254 262.5 L 255.5 260 Z " /><path desc="l 3 p 144" fill="rgb(251,251,251)" stroke="rgb(251,251,251)" stroke-width="1" opacity="0.2235294117647059" d="M 446.5 260 L 445.5 262 L 444 261.5 L 446.5 260 Z " /><path desc="l 3 p 145" fill="rgb(251,251,251)" stroke="rgb(251,251,251)" stroke-width="1" opacity="0.2235294117647059" d="M 302.5 261 Q 305.1 260.3 304 263 L 301 263.5 L 301.5 265 L 297 267 Q 298.1 269.7 295.5 269 L 294 272 L 290 274.5 L 288.5 277 Q 286.3 276.3 287 278.5 L 284.5 280 L 302.5 261 Z " /><path desc="l 3 p 146" fill="rgb(251,251,251)" stroke="rgb(251,251,251)" stroke-width="1" opacity="0.2235294117647059" d="M 500.5 261 L 501 262.5 L 500 265 Q 497.3 263.9 498 266.5 L 495 270.5 L 495.5 272 Q 493.3 271.3 494 273.5 L 492 274.5 L 500.5 261 Z " /><path desc="l 3 p 147" fill="rgb(251,251,251)" stroke="rgb(251,251,251)" stroke-width="1" opacity="0.2235294117647059" d="M 96.5 262 L 100 263.5 L 93.5 265 L 93.5 264 L 96.5 262 Z " /><path desc="l 3 p 148" fill="rgb(251,251,251)" stroke="rgb(251,251,251)" stroke-width="1" opacity="0.2235294117647059" d="M 170.5 262 L 169.5 264 L 163.5 267 L 163.5 266 L 170.5 262 Z " /><path desc="l 3 p 149" fill="rgb(251,251,251)" stroke="rgb(251,251,251)" stroke-width="1" opacity="0.2235294117647059" d="M 267 262 L 269 262.5 L 265.5 268 L 264 267.5 L 266 267 L 267 262 Z " /><path desc="l 3 p 150" fill="rgb(251,251,251)" stroke="rgb(251,251,251)" stroke-width="1" opacity="0.2235294117647059" d="M 322.5 262 L 322 263.5 L 320.5 269 L 319 266.5 Q 322.1 264.8 320.5 263 L 322.5 262 Z " /><path desc="l 3 p 152" fill="rgb(251,251,251)" stroke="rgb(251,251,251)" stroke-width="1" opacity="0.2235294117647059" d="M 422.5 262 L 426 262.5 L 419.5 264 L 419.5 263 L 422.5 262 Z " /><path desc="l 3 p 153" fill="rgb(251,251,251)" stroke="rgb(251,251,251)" stroke-width="1" opacity="0.2235294117647059" d="M 441.5 262 L 446 265.5 L 440 270.5 L 440.5 272 L 437.5 271 L 434.5 273 L 435.5 271 L 440 268.5 L 437.5 268 L 435.5 269 L 435.5 268 L 437 267.5 L 434 265.5 L 435.5 265 L 438.5 267 L 443 265.5 L 442.5 263 L 437.5 265 L 437.5 264 L 441.5 262 Z " /><path desc="l 3 p 154" fill="rgb(251,251,251)" stroke="rgb(251,251,251)" stroke-width="1" opacity="0.2235294117647059" d="M 341.5 263 L 341 264.5 L 338.5 269 L 339 267.5 L 341.5 263 Z " /><path desc="l 3 p 155" fill="rgb(251,251,251)" stroke="rgb(251,251,251)" stroke-width="1" opacity="0.2235294117647059" d="M 414.5 263 L 414.5 266 L 406.5 268 L 406.5 267 L 412 266 Q 410.9 263.3 413.5 264 L 414.5 263 Z " /><path desc="l 3 p 157" fill="rgb(251,251,251)" stroke="rgb(251,251,251)" stroke-width="1" opacity="0.2235294117647059" d="M 89.5 265 L 92 265.5 L 89.5 266 L 89.5 265 Z " /><path desc="l 3 p 158" fill="rgb(251,251,251)" stroke="rgb(251,251,251)" stroke-width="1" opacity="0.2235294117647059" d="M 192.5 265 Q 193.9 272.1 199 275.5 L 197 276 L 194.5 272 Q 192.3 272.8 193 270.5 Q 190.7 269.1 192.5 265 Z " /><path desc="l 3 p 159" fill="rgb(251,251,251)" stroke="rgb(251,251,251)" stroke-width="1" opacity="0.2235294117647059" d="M 252.5 265 L 253 267 L 251 266.5 L 252.5 265 Z " /><path desc="l 3 p 160" fill="rgb(251,251,251)" stroke="rgb(251,251,251)" stroke-width="1" opacity="0.2235294117647059" d="M 377.5 265 L 378 268.5 L 377 268.5 L 377.5 265 Z " /><path desc="l 3 p 161" fill="rgb(251,251,251)" stroke="rgb(251,251,251)" stroke-width="1" opacity="0.2235294117647059" d="M 84.5 266 L 88 266.5 L 84.5 267 L 84.5 266 Z " /><path desc="l 3 p 162" fill="rgb(251,251,251)" stroke="rgb(251,251,251)" stroke-width="1" opacity="0.2235294117647059" d="M 75.5 267 Q 77.5 271 79.5 267 L 83 267.5 L 78 269.5 L 79 272 L 75 269.5 L 75.5 267 Z " /><path desc="l 3 p 163" fill="rgb(251,251,251)" stroke="rgb(251,251,251)" stroke-width="1" opacity="0.2235294117647059" d="M 109.5 267 L 113 267.5 L 94 273 Q 92.3 268.9 96.5 270 Q 98 272.5 99.5 269 L 109.5 267 Z " /><path desc="l 3 p 164" fill="rgb(251,251,251)" stroke="rgb(251,251,251)" stroke-width="1" opacity="0.2235294117647059" d="M 230.5 267 L 229 269.5 L 221.5 281 L 222 279.5 Q 223.3 275.3 218.5 277 L 215 279 Q 216 282 213 281 Q 211.9 278.3 214.5 279 L 230.5 267 Z " /><path desc="l 3 p 165" fill="rgb(251,251,251)" stroke="rgb(251,251,251)" stroke-width="1" opacity="0.2235294117647059" d="M 399.5 267 L 400 269 Q 403 270 402 267 L 405 267 Q 406.3 270 402.5 269 L 395 271 L 395.5 269 L 397.5 270 L 399.5 267 Z " /><path desc="l 3 p 166" fill="rgb(251,251,251)" stroke="rgb(251,251,251)" stroke-width="1" opacity="0.2235294117647059" d="M 429.5 267 Q 431.8 266.3 431 268.5 L 434 269.5 L 418.5 274 L 419.5 272 L 429.5 267 Z " /><path desc="l 3 p 167" fill="rgb(251,251,251)" stroke="rgb(251,251,251)" stroke-width="1" opacity="0.2235294117647059" d="M 158.5 268 L 160 268.5 L 158 269 L 157.5 271 L 155.5 271 L 152.5 272 L 152.5 271 L 158.5 268 Z " /><path desc="l 3 p 169" fill="rgb(251,251,251)" stroke="rgb(251,251,251)" stroke-width="1" opacity="0.2235294117647059" d="M 359.5 268 Q 361 277.5 367.5 282 L 370 283.5 L 368.5 283 L 362.5 279 L 361 279.5 L 362 276.5 L 358 270.5 L 359.5 268 Z " /><path desc="l 3 p 170" fill="rgb(251,251,251)" stroke="rgb(251,251,251)" stroke-width="1" opacity="0.2235294117647059" d="M 264.5 269 L 264 270.5 L 262.5 274 L 260 273.5 L 263 272 L 264.5 269 Z " /><path desc="l 3 p 171" fill="rgb(251,251,251)" stroke="rgb(251,251,251)" stroke-width="1" opacity="0.2235294117647059" d="M 319.5 270 L 320 271.5 Q 317.5 273 319 278.5 L 319.5 280 Q 316.5 278.5 318 272.5 L 319.5 270 Z " /><path desc="l 3 p 172" fill="rgb(251,251,251)" stroke="rgb(251,251,251)" stroke-width="1" opacity="0.2235294117647059" d="M 337.5 270 L 337 271.5 L 336 273.5 Q 338.3 274.8 335.5 276 L 334 275.5 L 336 274.5 L 336 272.5 L 337.5 270 Z " /><path desc="l 3 p 173" fill="rgb(251,251,251)" stroke="rgb(251,251,251)" stroke-width="1" opacity="0.2235294117647059" d="M 378.5 270 Q 380 274 386 273.5 L 381.5 274 L 378.5 270 Z " /><path desc="l 3 p 174" fill="rgb(251,251,251)" stroke="rgb(251,251,251)" stroke-width="1" opacity="0.2235294117647059" d="M 80.5 271 L 93 271.5 L 80.5 272 L 80.5 271 Z " /><path desc="l 3 p 175" fill="rgb(251,251,251)" stroke="rgb(251,251,251)" stroke-width="1" opacity="0.2235294117647059" d="M 248.5 271 L 250 271.5 L 248 272 L 247 274.5 Q 249.2 275.8 246.5 277 Q 244.3 276.3 245 278.5 L 236.5 291 L 237 289.5 L 248.5 271 Z " /><path desc="l 3 p 176" fill="rgb(251,251,251)" stroke="rgb(251,251,251)" stroke-width="1" opacity="0.2235294117647059" d="M 149.5 272 L 151 272.5 L 149 273 L 148.5 275 L 147 274.5 L 146.5 276 L 145.5 274 L 149.5 272 Z " /><path desc="l 3 p 177" fill="rgb(251,251,251)" stroke="rgb(251,251,251)" stroke-width="1" opacity="0.2235294117647059" d="M 388.5 272 L 391 272.5 L 388.5 273 L 388.5 272 Z " /><path desc="l 3 p 178" fill="rgb(251,251,251)" stroke="rgb(251,251,251)" stroke-width="1" opacity="0.2235294117647059" d="M 89.5 273 L 93 273.5 L 88.5 275 L 89.5 273 Z " /><path desc="l 3 p 179" fill="rgb(251,251,251)" stroke="rgb(251,251,251)" stroke-width="1" opacity="0.2235294117647059" d="M 432.5 273 L 435 274.5 L 433.5 275 L 432 274.5 L 431.5 276 L 429.5 276 L 422.5 279 L 422.5 278 L 432.5 273 Z " /><path desc="l 3 p 180" fill="rgb(251,251,251)" stroke="rgb(251,251,251)" stroke-width="1" opacity="0.2235294117647059" d="M 141.5 275 L 144 275.5 L 139.5 277 L 139.5 276 L 141.5 275 Z " /><path desc="l 3 p 181" fill="rgb(251,251,251)" stroke="rgb(251,251,251)" stroke-width="1" opacity="0.2235294117647059" d="M 260 275 L 262 275.5 L 261 279.5 L 266.5 286 L 263.5 284 L 259 281 L 260 275 Z " /><path desc="l 3 p 182" fill="rgb(251,251,251)" stroke="rgb(251,251,251)" stroke-width="1" opacity="0.2235294117647059" d="M 79.5 276 L 83 276.5 L 72.5 279 L 72.5 278 L 79.5 276 Z " /><path desc="l 3 p 183" fill="rgb(251,251,251)" stroke="rgb(251,251,251)" stroke-width="1" opacity="0.2235294117647059" d="M 491.5 276 L 491 277.5 L 487 287 Q 484.3 285.9 485 288.5 L 483.5 291 L 481.5 290 L 477.5 291 L 477.5 290 Q 483.9 289.9 486 285.5 L 491.5 276 Z " /><path desc="l 3 p 185" fill="rgb(251,251,251)" stroke="rgb(251,251,251)" stroke-width="1" opacity="0.2235294117647059" d="M 201.5 277 L 202.5 279 L 200 278.5 L 201.5 277 Z " /><path desc="l 3 p 186" fill="rgb(251,251,251)" stroke="rgb(251,251,251)" stroke-width="1" opacity="0.2235294117647059" d="M 333.5 277 L 333 278.5 L 327.5 288 L 323 285.5 L 324.5 286 Q 328.3 286.8 329 284.5 L 333.5 277 Z " /><path desc="l 3 p 187" fill="rgb(251,251,251)" stroke="rgb(251,251,251)" stroke-width="1" opacity="0.2235294117647059" d="M 132.5 278 Q 135.8 276.9 135 279.5 L 132.5 280 L 129 279.5 L 132.5 278 Z " /><path desc="l 3 p 188" fill="rgb(251,251,251)" stroke="rgb(251,251,251)" stroke-width="1" opacity="0.2235294117647059" d="M 68.5 279 L 71 279.5 L 68.5 280 L 68.5 279 Z " /><path desc="l 3 p 189" fill="rgb(251,251,251)" stroke="rgb(251,251,251)" stroke-width="1" opacity="0.2235294117647059" d="M 204 279 L 212 280.5 L 206.5 281 L 204 280.5 L 204 279 Z " /><path desc="l 3 p 191" fill="rgb(251,251,251)" stroke="rgb(251,251,251)" stroke-width="1" opacity="0.2235294117647059" d="M 64.5 280 L 67 280.5 L 64.5 281 L 64.5 280 Z " /><path desc="l 3 p 192" fill="rgb(251,251,251)" stroke="rgb(251,251,251)" stroke-width="1" opacity="0.2235294117647059" d="M 125.5 280 L 127 280.5 L 122 282 Q 123.3 285.3 118.5 284 L 117.5 282 Q 123.2 282.7 125.5 280 Z " /><path desc="l 3 p 193" fill="rgb(251,251,251)" stroke="rgb(251,251,251)" stroke-width="1" opacity="0.2235294117647059" d="M 417.5 280 L 416.5 282 L 412.5 283 L 412.5 282 L 417.5 280 Z " /><path desc="l 3 p 194" fill="rgb(251,251,251)" stroke="rgb(251,251,251)" stroke-width="1" opacity="0.2235294117647059" d="M 283.5 281 L 283 282.5 L 283 284 L 281 284 Q 282.1 286.7 279.5 286 L 278 286.5 L 283.5 281 Z " /><path desc="l 3 p 195" fill="rgb(251,251,251)" stroke="rgb(251,251,251)" stroke-width="1" opacity="0.2235294117647059" d="M 319.5 281 L 323 283.5 L 320.5 285 L 319.5 281 Z " /><path desc="l 3 p 196" fill="rgb(251,251,251)" stroke="rgb(251,251,251)" stroke-width="1" opacity="0.2235294117647059" d="M 48.5 282 L 53 283.5 L 51 284.5 Q 55.5 289 64 288 L 63.5 290 L 49 285.5 L 49.5 284 Q 46.7 284.7 48.5 282 Z " /><path desc="l 3 p 197" fill="rgb(251,251,251)" stroke="rgb(251,251,251)" stroke-width="1" opacity="0.2235294117647059" d="M 55.5 282 L 59 282.5 L 55.5 283 L 55.5 282 Z " /><path desc="l 3 p 198" fill="rgb(251,251,251)" stroke="rgb(251,251,251)" stroke-width="1" opacity="0.2235294117647059" d="M 217.5 282 Q 220.8 280.9 220 283.5 L 216.5 285 L 216.5 284 L 218 283.5 L 217.5 282 Z " /><path desc="l 3 p 199" fill="rgb(251,251,251)" stroke="rgb(251,251,251)" stroke-width="1" opacity="0.2235294117647059" d="M 113 283 Q 117.1 281.7 116 285 L 113.5 286 L 113 283 Z " /><path desc="l 3 p 201" fill="rgb(251,251,251)" stroke="rgb(251,251,251)" stroke-width="1" opacity="0.2235294117647059" d="M 371.5 284 Q 378.1 290.2 392 288 L 391.5 290 L 388.5 289 L 381.5 290 L 376 289 Q 377.1 286.3 374.5 287 L 371.5 284 Z " /><path desc="l 3 p 202" fill="rgb(251,251,251)" stroke="rgb(251,251,251)" stroke-width="1" opacity="0.2235294117647059" d="M 406.5 284 L 408 284.5 L 398.5 287 L 398.5 286 L 406.5 284 Z " /><path desc="l 3 p 203" fill="rgb(251,251,251)" stroke="rgb(251,251,251)" stroke-width="1" opacity="0.2235294117647059" d="M 103.5 285 L 107 285.5 L 103.5 286 L 103.5 285 Z " /><path desc="l 3 p 204" fill="rgb(251,251,251)" stroke="rgb(251,251,251)" stroke-width="1" opacity="0.2235294117647059" d="M 97.5 286 L 101 286.5 L 97.5 287 L 97.5 286 Z " /><path desc="l 3 p 205" fill="rgb(251,251,251)" stroke="rgb(251,251,251)" stroke-width="1" opacity="0.2235294117647059" d="M 216 286 L 218 286.5 L 215 291 Q 212 292 213 289 L 216 287.5 L 216 286 Z " /><path desc="l 3 p 206" fill="rgb(251,251,251)" stroke="rgb(251,251,251)" stroke-width="1" opacity="0.2235294117647059" d="M 268.5 286 Q 270.2 288.8 275.5 288 L 277 287.5 L 275.5 290 Q 269 290 268.5 286 Z " /><path desc="l 3 p 207" fill="rgb(251,251,251)" stroke="rgb(251,251,251)" stroke-width="1" opacity="0.2235294117647059" d="M 91 287 L 95 287.5 L 91 289 L 91 287 Z " /><path desc="l 3 p 209" fill="rgb(251,251,251)" stroke="rgb(251,251,251)" stroke-width="1" opacity="0.2235294117647059" d="M 81 288 L 90 288.5 L 81.5 290 L 81 288 Z " /><path desc="l 3 p 210" fill="rgb(251,251,251)" stroke="rgb(251,251,251)" stroke-width="1" opacity="0.2235294117647059" d="M 67.5 289 L 78 289.5 L 72.5 291 L 68.5 291 L 67.5 289 Z " /><path desc="l 3 p 211" fill="rgb(251,251,251)" stroke="rgb(251,251,251)" stroke-width="1" opacity="0.2235294117647059" d="M 212.5 292 L 213 293.5 L 204.5 305 L 205 303.5 L 207 300.5 Q 204.8 299.3 207.5 298 Q 209.8 298.8 209 296.5 L 212.5 292 Z " /><path desc="l 3 p 214" fill="rgb(251,251,251)" stroke="rgb(251,251,251)" stroke-width="1" opacity="0.2235294117647059" d="M 231.5 298 L 231 299.5 L 228 306 L 226 305.5 L 231.5 298 Z " /><path desc="l 3 p 215" fill="rgb(251,251,251)" stroke="rgb(251,251,251)" stroke-width="1" opacity="0.2235294117647059" d="M 389.5 304 L 393 305.5 L 391.5 305 Q 387.5 304.5 387 307.5 L 381.5 322 L 381 319.5 L 381.5 317 L 383 316.5 L 382 315.5 L 385 312.5 L 384 311.5 Q 383.3 308.9 386 310 L 386 305.5 Q 387.8 307.1 389.5 304 Z " /><path desc="l 3 p 216" fill="rgb(251,251,251)" stroke="rgb(251,251,251)" stroke-width="1" opacity="0.2235294117647059" d="M 397.5 305 L 400 308.5 L 398.5 308 Q 395.4 308.7 397.5 305 Z " /><path desc="l 3 p 217" fill="rgb(251,251,251)" stroke="rgb(251,251,251)" stroke-width="1" opacity="0.2235294117647059" d="M 202 306 L 204 306.5 L 201 308.5 L 202 306 Z " /><path desc="l 3 p 218" fill="rgb(251,251,251)" stroke="rgb(251,251,251)" stroke-width="1" opacity="0.2235294117647059" d="M 225.5 307 L 225 308.5 L 223 311.5 L 224.5 314 L 222.5 313 L 215 322.5 L 214 326 L 211.5 327 L 214 323.5 L 225.5 307 Z " /><path desc="l 3 p 219" fill="rgb(251,251,251)" stroke="rgb(251,251,251)" stroke-width="1" opacity="0.2235294117647059" d="M 401.5 309 Q 403.8 308.3 403 310.5 Q 406.3 311.8 405 317.5 L 403.5 320 L 403 318.5 Q 405.3 317.3 404 312.5 L 401.5 309 Z " /><path desc="l 3 p 220" fill="rgb(251,251,251)" stroke="rgb(251,251,251)" stroke-width="1" opacity="0.2235294117647059" d="M 199 310 L 201 310.5 Q 196.4 313.4 196 320.5 L 200 323.5 L 198.5 323 L 194 322 Q 194.3 316.6 198 313.5 L 197.5 312 Q 200.1 312.7 199 310 Z " /><path desc="l 3 p 221" fill="rgb(251,251,251)" stroke="rgb(251,251,251)" stroke-width="1" opacity="0.2235294117647059" d="M 402.5 321 L 403 323.5 Q 399.9 325.3 401.5 327 Q 399.3 327.8 400 325.5 L 402.5 321 Z " /><path desc="l 3 p 222" fill="rgb(251,251,251)" stroke="rgb(251,251,251)" stroke-width="1" opacity="0.2235294117647059" d="M 308.5 323 Q 311.1 322.3 310 325 L 308 325.5 L 308.5 327 L 306 328.5 L 303.5 332 L 305 329.5 L 307 325.5 L 306.5 324 L 308.5 323 Z " /><path desc="l 3 p 223" fill="rgb(251,251,251)" stroke="rgb(251,251,251)" stroke-width="1" opacity="0.2235294117647059" d="M 380.5 323 L 380 324.5 L 378.5 329 L 377.5 327 Q 380.1 327.8 379 324.5 L 380.5 323 Z " /><path desc="l 3 p 224" fill="rgb(251,251,251)" stroke="rgb(251,251,251)" stroke-width="1" opacity="0.2235294117647059" d="M 201.5 324 L 206.5 329 L 209 329 Q 210.1 331.7 207.5 331 L 206 331.5 Q 208.8 329.8 204.5 328 L 201 325.5 L 201.5 324 Z " /><path desc="l 3 p 225" fill="rgb(251,251,251)" stroke="rgb(251,251,251)" stroke-width="1" opacity="0.2235294117647059" d="M 303.5 325 L 305 325.5 L 287 340.5 L 279.5 349 Q 277.3 348.3 278 350.5 L 272.5 357 L 273.5 354 L 272 353.5 L 273.5 353 L 275 353.5 L 279.5 347 L 282 345.5 L 283.5 343 L 286 341.5 L 293.5 333 L 296 331.5 L 296 330 L 298 330 Q 296.9 327.3 299.5 328 L 303.5 325 Z " /><path desc="l 3 p 226" fill="rgb(251,251,251)" stroke="rgb(251,251,251)" stroke-width="1" opacity="0.2235294117647059" d="M 184.5 328 L 180.5 333 L 181 331.5 L 181.5 329 Q 183 331.5 184.5 328 Z " /><path desc="l 3 p 227" fill="rgb(251,251,251)" stroke="rgb(251,251,251)" stroke-width="1" opacity="0.2235294117647059" d="M 399.5 328 L 400 329.5 L 399.5 332 L 398 329.5 L 399.5 328 Z " /><path desc="l 3 p 228" fill="rgb(251,251,251)" stroke="rgb(251,251,251)" stroke-width="1" opacity="0.2235294117647059" d="M 186.5 329 L 192 332 L 194 338 L 196 338.5 L 194.5 339 L 188.5 331 L 186.5 329 Z " /><path desc="l 3 p 229" fill="rgb(251,251,251)" stroke="rgb(251,251,251)" stroke-width="1" opacity="0.2235294117647059" d="M 376 330 L 378 330.5 L 375.5 336 L 375 334.5 L 376 330 Z " /><path desc="l 3 p 230" fill="rgb(251,251,251)" stroke="rgb(251,251,251)" stroke-width="1" opacity="0.2235294117647059" d="M 397.5 332 L 398 335 L 396 335.5 L 397 337.5 L 395 337.5 L 394.5 339 L 394 337.5 L 397.5 332 Z " /><path desc="l 3 p 231" fill="rgb(251,251,251)" stroke="rgb(251,251,251)" stroke-width="1" opacity="0.2235294117647059" d="M 302.5 333 L 305 334.5 L 302.5 336 Q 299.5 334.5 302.5 333 Z " /><path desc="l 3 p 232" fill="rgb(251,251,251)" stroke="rgb(251,251,251)" stroke-width="1" opacity="0.2235294117647059" d="M 178 334 L 180 334.5 L 176.5 343 L 176 340.5 L 178 334 Z " /><path desc="l 3 p 233" fill="rgb(251,251,251)" stroke="rgb(251,251,251)" stroke-width="1" opacity="0.2235294117647059" d="M 300.5 336 L 301 339.5 L 299 344 L 297 343.5 L 299 340.5 L 296 341.5 L 300.5 336 Z " /><path desc="l 3 p 234" fill="rgb(251,251,251)" stroke="rgb(251,251,251)" stroke-width="1" opacity="0.2235294117647059" d="M 373.5 340 L 373 341.5 Q 373.8 343.8 371.5 343 L 373.5 340 Z " /><path desc="l 3 p 235" fill="rgb(251,251,251)" stroke="rgb(251,251,251)" stroke-width="1" opacity="0.2235294117647059" d="M 196.5 342 L 197 343.5 L 195.5 347 L 195 344.5 L 196.5 342 Z " /><path desc="l 3 p 236" fill="rgb(251,251,251)" stroke="rgb(251,251,251)" stroke-width="1" opacity="0.2235294117647059" d="M 175.5 344 L 176 345.5 L 174.5 349 L 174 346.5 L 175.5 344 Z " /><path desc="l 3 p 238" fill="rgb(251,251,251)" stroke="rgb(251,251,251)" stroke-width="1" opacity="0.2235294117647059" d="M 391.5 344 L 392 346.5 L 389 348.5 L 391.5 344 Z " /><path desc="l 3 p 239" fill="rgb(251,251,251)" stroke="rgb(251,251,251)" stroke-width="1" opacity="0.2235294117647059" d="M 296.5 345 L 298 345.5 Q 293.1 347.1 292.5 353 L 292 350.5 L 296.5 345 Z " /><path desc="l 3 p 240" fill="rgb(251,251,251)" stroke="rgb(251,251,251)" stroke-width="1" opacity="0.2235294117647059" d="M 370.5 347 L 370 348.5 L 367.5 355 L 367 353.5 L 368 349.5 L 370.5 347 Z " /><path desc="l 3 p 241" fill="rgb(251,251,251)" stroke="rgb(251,251,251)" stroke-width="1" opacity="0.2235294117647059" d="M 194 348 L 196 348.5 L 192.5 355 L 192 353.5 L 194 348 Z " /><path desc="l 3 p 242" fill="rgb(251,251,251)" stroke="rgb(251,251,251)" stroke-width="1" opacity="0.2235294117647059" d="M 388.5 350 L 389 351.5 L 384.5 359 L 384 357.5 L 388.5 350 Z " /><path desc="l 3 p 243" fill="rgb(251,251,251)" stroke="rgb(251,251,251)" stroke-width="1" opacity="0.2235294117647059" d="M 171 353 Q 173.7 351.9 173 354.5 L 167.5 371 L 166 368 Q 169 369.3 168 365.5 L 170 361.5 L 170 357.5 L 171 353 Z " /><path desc="l 3 p 244" fill="rgb(251,251,251)" stroke="rgb(251,251,251)" stroke-width="1" opacity="0.2235294117647059" d="M 231.5 353 L 233.5 354 L 236 353 L 236 355 Q 238.7 353.9 238 356.5 Q 241.7 359.3 242 365.5 L 240.5 368 Q 241.5 358 235.5 355 Q 229.8 354.3 227.5 357 L 217.5 366 L 218 364.5 Q 217.3 362.3 219.5 363 L 223 360.5 L 222.5 359 L 224 359.5 Q 223.3 357.3 225.5 358 L 231 355 L 231.5 353 Z " /><path desc="l 3 p 245" fill="rgb(251,251,251)" stroke="rgb(251,251,251)" stroke-width="1" opacity="0.2235294117647059" d="M 289.5 355 L 289 356.5 L 289 359 Q 286.3 357.9 287 360.5 L 285 363.5 L 285.5 365 Q 281 364.5 280.5 368 L 283 364.5 L 289.5 355 Z " /><path desc="l 3 p 246" fill="rgb(251,251,251)" stroke="rgb(251,251,251)" stroke-width="1" opacity="0.2235294117647059" d="M 366.5 356 L 366 357.5 L 364.5 362 L 364 360.5 L 366.5 356 Z " /><path desc="l 3 p 247" fill="rgb(251,251,251)" stroke="rgb(251,251,251)" stroke-width="1" opacity="0.2235294117647059" d="M 270.5 357 L 272 358.5 L 266 364.5 L 259.5 373 L 262 369.5 L 263 366 L 265 366 Q 263.5 362.3 266.5 363 Q 270.2 361 268.5 359 Q 271 359.7 270.5 357 Z " /><path desc="l 3 p 248" fill="rgb(251,251,251)" stroke="rgb(251,251,251)" stroke-width="1" opacity="0.2235294117647059" d="M 190.5 359 Q 193.3 360.3 191 361.5 Q 192.5 365.9 189.5 365 L 188 365.5 L 190.5 359 Z " /><path desc="l 3 p 249" fill="rgb(251,251,251)" stroke="rgb(251,251,251)" stroke-width="1" opacity="0.2235294117647059" d="M 363.5 363 L 363 364.5 L 362.5 366 L 362 364.5 L 363.5 363 Z " /><path desc="l 3 p 250" fill="rgb(251,251,251)" stroke="rgb(251,251,251)" stroke-width="1" opacity="0.2235294117647059" d="M 381 364 Q 384 363 383 366 L 380.5 367 L 381 365.5 L 381 364 Z " /><path desc="l 3 p 251" fill="rgb(251,251,251)" stroke="rgb(251,251,251)" stroke-width="1" opacity="0.2235294117647059" d="M 187.5 367 L 188 369.5 L 186.5 373 L 186 370.5 L 187.5 367 Z " /><path desc="l 3 p 252" fill="rgb(251,251,251)" stroke="rgb(251,251,251)" stroke-width="1" opacity="0.2235294117647059" d="M 215.5 367 L 196 387.5 L 194.5 390 L 193 389.5 L 194 387 L 197 385.5 L 197 384 L 199 384 Q 197.9 381.3 200.5 382 L 202 379 Q 204.7 380.1 204 377.5 L 208 374.5 L 207.5 373 L 209 373.5 Q 208.3 371.3 210.5 372 L 213 368 L 215.5 367 Z " /><path desc="l 3 p 253" fill="rgb(251,251,251)" stroke="rgb(251,251,251)" stroke-width="1" opacity="0.2235294117647059" d="M 361.5 367 L 362 368.5 L 357.5 378 L 357 376.5 L 361.5 367 Z " /><path desc="l 3 p 254" fill="rgb(251,251,251)" stroke="rgb(251,251,251)" stroke-width="1" opacity="0.2235294117647059" d="M 379.5 368 L 379 369.5 L 377.5 373 L 377 371.5 L 379.5 368 Z " /><path desc="l 3 p 255" fill="rgb(251,251,251)" stroke="rgb(251,251,251)" stroke-width="1" opacity="0.2235294117647059" d="M 279.5 369 L 281 369.5 L 279 370 L 278.5 372 L 278 370.5 L 279.5 369 Z " /><path desc="l 3 p 256" fill="rgb(251,251,251)" stroke="rgb(251,251,251)" stroke-width="1" opacity="0.2235294117647059" d="M 305.5 370 L 306.5 372 L 299 374 L 299.5 372 L 301 372.5 L 301.5 371 L 303.5 371 L 305.5 370 Z " /><path desc="l 3 p 257" fill="rgb(251,251,251)" stroke="rgb(251,251,251)" stroke-width="1" opacity="0.2235294117647059" d="M 309.5 370 L 315 370.5 L 309.5 371 L 309.5 370 Z " /><path desc="l 3 p 258" fill="rgb(251,251,251)" stroke="rgb(251,251,251)" stroke-width="1" opacity="0.2235294117647059" d="M 317 370 L 320 370 Q 318.9 372.7 321.5 372 L 321.5 373 L 317 372 L 317 370 Z " /><path desc="l 3 p 259" fill="rgb(251,251,251)" stroke="rgb(251,251,251)" stroke-width="1" opacity="0.2235294117647059" d="M 395 371 L 401.5 372 L 404.5 371 L 408 372.5 L 405.5 374 L 404.5 373 L 395.5 373 L 393 374 L 393.5 372 L 395 372.5 L 395 371 Z " /><path desc="l 3 p 260" fill="rgb(251,251,251)" stroke="rgb(251,251,251)" stroke-width="1" opacity="0.2235294117647059" d="M 166.5 372 L 167 374.5 L 165 373.5 L 166.5 372 Z " /><path desc="l 3 p 261" fill="rgb(251,251,251)" stroke="rgb(251,251,251)" stroke-width="1" opacity="0.2235294117647059" d="M 238.5 372 L 239 374.5 L 238 374.5 L 238.5 372 Z " /><path desc="l 3 p 262" fill="rgb(251,251,251)" stroke="rgb(251,251,251)" stroke-width="1" opacity="0.2235294117647059" d="M 276.5 373 L 277 374.5 L 276 376.5 L 276.5 378 L 274 376.5 L 276.5 373 Z " /><path desc="l 3 p 265" fill="rgb(251,251,251)" stroke="rgb(251,251,251)" stroke-width="1" opacity="0.2235294117647059" d="M 376.5 374 L 378 374.5 L 376 375.5 L 376.5 377 Q 374.3 377.8 375 375.5 L 376.5 374 Z " /><path desc="l 3 p 266" fill="rgb(251,251,251)" stroke="rgb(251,251,251)" stroke-width="1" opacity="0.2235294117647059" d="M 389.5 374 L 391 374.5 L 377.5 381 L 376.5 379 L 378.5 379 L 382 377.5 L 379 376.5 Q 380.8 373.3 382.5 377 L 389.5 374 Z " /><path desc="l 3 p 267" fill="rgb(251,251,251)" stroke="rgb(251,251,251)" stroke-width="1" opacity="0.2235294117647059" d="M 294.5 375 L 296 375.5 L 292.5 378 L 292 376 L 294.5 375 Z " /><path desc="l 3 p 268" fill="rgb(251,251,251)" stroke="rgb(251,251,251)" stroke-width="1" opacity="0.2235294117647059" d="M 326.5 375 L 328.5 376 L 330 375.5 L 329.5 378 L 326.5 375 Z " /><path desc="l 3 p 269" fill="rgb(251,251,251)" stroke="rgb(251,251,251)" stroke-width="1" opacity="0.2235294117647059" d="M 410.5 375 L 413 376.5 Q 412.3 378.8 414.5 378 L 415.5 380 L 410.5 375 Z " /><path desc="l 3 p 270" fill="rgb(251,251,251)" stroke="rgb(251,251,251)" stroke-width="1" opacity="0.2235294117647059" d="M 165.5 376 L 166 378.5 L 164.5 383 L 164 379.5 L 165.5 376 Z " /><path desc="l 3 p 272" fill="rgb(251,251,251)" stroke="rgb(251,251,251)" stroke-width="1" opacity="0.2235294117647059" d="M 237.5 376 L 238 379.5 L 236 380.5 L 237.5 376 Z " /><path desc="l 3 p 273" fill="rgb(251,251,251)" stroke="rgb(251,251,251)" stroke-width="1" opacity="0.2235294117647059" d="M 331.5 377 L 337 383.5 L 331 378.5 L 331.5 377 Z " /><path desc="l 3 p 274" fill="rgb(251,251,251)" stroke="rgb(251,251,251)" stroke-width="1" opacity="0.2235294117647059" d="M 273.5 378 L 276 379.5 L 274.5 379 Q 272.3 378.3 273 380.5 L 270 382.5 L 273.5 378 Z " /><path desc="l 3 p 275" fill="rgb(251,251,251)" stroke="rgb(251,251,251)" stroke-width="1" opacity="0.2235294117647059" d="M 290.5 378 L 289.5 380 L 276 392.5 L 272.5 398 L 273 396.5 L 275 393.5 L 274.5 392 L 277.5 390 L 281.5 385 L 283 384.5 L 282.5 383 L 284 383.5 Q 283.3 381.3 285.5 382 L 290.5 378 Z " /><path desc="l 3 p 276" fill="rgb(251,251,251)" stroke="rgb(251,251,251)" stroke-width="1" opacity="0.2235294117647059" d="M 183.5 379 L 184 381.5 L 183 381.5 L 183.5 379 Z " /><path desc="l 3 p 277" fill="rgb(251,251,251)" stroke="rgb(251,251,251)" stroke-width="1" opacity="0.2235294117647059" d="M 253 379 L 255 379.5 L 241.5 397 L 243 394.5 L 251 383.5 L 250.5 382 L 252 382.5 L 253 379 Z " /><path desc="l 3 p 278" fill="rgb(251,251,251)" stroke="rgb(251,251,251)" stroke-width="1" opacity="0.2235294117647059" d="M 356.5 379 L 356 380.5 L 354.5 385 L 354 382.5 L 356.5 379 Z " /><path desc="l 3 p 279" fill="rgb(251,251,251)" stroke="rgb(251,251,251)" stroke-width="1" opacity="0.2235294117647059" d="M 373.5 380 L 374.5 382 L 376 381.5 L 372.5 384 L 372 382.5 L 373.5 380 Z " /><path desc="l 3 p 283" fill="rgb(251,251,251)" stroke="rgb(251,251,251)" stroke-width="1" opacity="0.2235294117647059" d="M 181.5 386 L 182 391 Q 179 392.3 180 388.5 L 181.5 386 Z " /><path desc="l 3 p 284" fill="rgb(251,251,251)" stroke="rgb(251,251,251)" stroke-width="1" opacity="0.2235294117647059" d="M 234.5 386 L 235 389.5 L 234 389.5 L 234.5 386 Z " /><path desc="l 3 p 285" fill="rgb(251,251,251)" stroke="rgb(251,251,251)" stroke-width="1" opacity="0.2235294117647059" d="M 314.5 386 Q 319 385 320 387.5 L 316.5 392 L 303.5 398 L 303.5 397 L 305 396.5 L 304.5 395 L 306.5 396 L 314 391.5 L 314.5 390 L 316.5 391 L 319 387.5 L 316.5 387 Q 315.2 389.3 310.5 388 L 302.5 393 L 303.5 391 L 314.5 386 Z " /><path desc="l 3 p 286" fill="rgb(251,251,251)" stroke="rgb(251,251,251)" stroke-width="1" opacity="0.2235294117647059" d="M 353.5 386 L 353 387.5 L 351 394 L 349 394.5 L 349.5 396 Q 347.3 396.8 348 394.5 L 349 392 L 351 391.5 L 350 389 Q 352.7 390.1 352 387.5 L 353.5 386 Z " /><path desc="l 3 p 287" fill="rgb(251,251,251)" stroke="rgb(251,251,251)" stroke-width="1" opacity="0.2235294117647059" d="M 161.5 387 Q 164.1 386.2 163 389.5 L 161.5 394 L 160 391.5 L 162 388.5 L 161.5 387 Z " /><path desc="l 3 p 289" fill="rgb(251,251,251)" stroke="rgb(251,251,251)" stroke-width="1" opacity="0.2235294117647059" d="M 396 387 Q 401.5 385.8 403 389.5 Q 404.1 392.8 401.5 392 L 401 389.5 L 400.5 388 L 398.5 389 L 396 388.5 L 396 387 Z " /><path desc="l 3 p 290" fill="rgb(251,251,251)" stroke="rgb(251,251,251)" stroke-width="1" opacity="0.2235294117647059" d="M 420.5 387 L 422 387.5 L 422 398.5 L 421 398.5 L 421 388.5 L 420.5 387 Z " /><path desc="l 3 p 291" fill="rgb(251,251,251)" stroke="rgb(251,251,251)" stroke-width="1" opacity="0.2235294117647059" d="M 392.5 388 L 395 388.5 L 388 391 L 387.5 393 L 386.5 392 L 384 393.5 Q 383.3 391.3 385.5 392 L 392.5 388 Z " /><path desc="l 3 p 292" fill="rgb(251,251,251)" stroke="rgb(251,251,251)" stroke-width="1" opacity="0.2235294117647059" d="M 265.5 390 L 265 391.5 L 262 399 L 259.5 400 L 261 397.5 L 265.5 390 Z " /><path desc="l 3 p 293" fill="rgb(251,251,251)" stroke="rgb(251,251,251)" stroke-width="1" opacity="0.2235294117647059" d="M 190.5 391 L 193 391.5 L 174.5 412 L 174 410.5 L 177.5 399 L 178 401.5 L 178 403.5 L 178.5 406 L 181.5 402 L 183 402 Q 181.5 398.3 184.5 399 L 190 393.5 L 190.5 391 Z " /><path desc="l 3 p 294" fill="rgb(251,251,251)" stroke="rgb(251,251,251)" stroke-width="1" opacity="0.2235294117647059" d="M 179 392 Q 181.7 390.9 181 393.5 L 179 394.5 L 179 392 Z " /><path desc="l 3 p 295" fill="rgb(251,251,251)" stroke="rgb(251,251,251)" stroke-width="1" opacity="0.2235294117647059" d="M 213.5 392 L 214 394 L 212 394.5 L 213 399.5 L 211.5 406 L 211 399.5 L 211.5 398 L 204 403.5 Q 204.8 405.8 202.5 405 L 210 396.5 L 213.5 392 Z " /><path desc="l 3 p 296" fill="rgb(251,251,251)" stroke="rgb(251,251,251)" stroke-width="1" opacity="0.2235294117647059" d="M 300.5 393 L 301.5 395 Q 300.3 392.8 299 395.5 L 298 398.5 L 298.5 400 L 293.5 401 L 296.5 397 Q 298.8 397.8 298 395.5 L 300.5 393 Z " /><path desc="l 3 p 297" fill="rgb(251,251,251)" stroke="rgb(251,251,251)" stroke-width="1" opacity="0.2235294117647059" d="M 336.5 393 L 337 394.5 L 336 398 L 330 401.5 L 330.5 403 L 328 402.5 L 336.5 393 Z " /><path desc="l 3 p 298" fill="rgb(251,251,251)" stroke="rgb(251,251,251)" stroke-width="1" opacity="0.2235294117647059" d="M 402.5 393 L 403 396 L 401 395.5 L 402.5 393 Z " /><path desc="l 3 p 299" fill="rgb(251,251,251)" stroke="rgb(251,251,251)" stroke-width="1" opacity="0.2235294117647059" d="M 381.5 394 L 383 394.5 L 375.5 400 L 379.5 395 L 381.5 394 Z " /><path desc="l 3 p 300" fill="rgb(251,251,251)" stroke="rgb(251,251,251)" stroke-width="1" opacity="0.2235294117647059" d="M 160.5 395 L 161 397.5 L 159.5 402 L 159 398.5 L 160.5 395 Z " /><path desc="l 3 p 301" fill="rgb(251,251,251)" stroke="rgb(251,251,251)" stroke-width="1" opacity="0.2235294117647059" d="M 232.5 395 L 233 397.5 L 232 397.5 L 232.5 395 Z " /><path desc="l 3 p 302" fill="rgb(251,251,251)" stroke="rgb(251,251,251)" stroke-width="1" opacity="0.2235294117647059" d="M 348.5 397 L 349 398.5 L 347.5 401 L 347 398.5 L 348.5 397 Z " /><path desc="l 3 p 303" fill="rgb(251,251,251)" stroke="rgb(251,251,251)" stroke-width="1" opacity="0.2235294117647059" d="M 400.5 397 L 402 397.5 Q 395.8 409.3 385.5 417 L 377.5 422 L 377 420 L 386 415.5 L 384.5 413 L 386.5 413 Q 390.5 413.5 391 410.5 L 390.5 409 L 392 409.5 Q 391.3 407.3 393.5 408 Q 397.2 406 395.5 404 L 399 401.5 L 398.5 400 L 400 399.5 Q 397.8 398.3 400.5 397 Z " /><path desc="l 3 p 304" fill="rgb(251,251,251)" stroke="rgb(251,251,251)" stroke-width="1" opacity="0.2235294117647059" d="M 239 398 L 241 398.5 L 231.5 411 L 230 411.5 Q 232.3 412.8 229.5 414 L 229 409.5 L 230.5 410 Q 233.1 410.7 232 408 Q 228.7 409.3 230 404.5 L 231.5 405 L 237 402.5 L 239 398 Z " /><path desc="l 3 p 305" fill="rgb(251,251,251)" stroke="rgb(251,251,251)" stroke-width="1" opacity="0.2235294117647059" d="M 231.5 399 L 233 402.5 L 231 401.5 L 231.5 399 Z " /><path desc="l 3 p 306" fill="rgb(251,251,251)" stroke="rgb(251,251,251)" stroke-width="1" opacity="0.2235294117647059" d="M 271.5 399 L 271 400.5 L 269.5 404 L 269 402.5 L 271.5 399 Z " /><path desc="l 3 p 307" fill="rgb(251,251,251)" stroke="rgb(251,251,251)" stroke-width="1" opacity="0.2235294117647059" d="M 373.5 400 L 371 403.5 Q 371.7 406.1 369 405 L 369 408 L 367.5 408 L 361.5 415 L 363 412.5 L 373.5 400 Z " /><path desc="l 3 p 308" fill="rgb(251,251,251)" stroke="rgb(251,251,251)" stroke-width="1" opacity="0.2235294117647059" d="M 258.5 401 L 258 402.5 L 258 405.5 L 253.5 410 L 254 408.5 L 258.5 401 Z " /><path desc="l 3 p 309" fill="rgb(251,251,251)" stroke="rgb(251,251,251)" stroke-width="1" opacity="0.2235294117647059" d="M 346.5 402 L 346 403.5 L 341 417 Q 336.4 415.8 335 418.5 L 335.5 420 L 334.5 419 L 330.5 423 Q 327.5 422.2 329 426 L 326.5 426 L 323.5 431 L 321.5 431 L 319 432.5 L 318.5 434 L 318 432.5 L 328 425 L 331.5 420 L 336 416.5 L 337 414.5 L 335.5 414 L 334 414.5 Q 335.7 410.5 342 412 Q 341.3 408.6 344 407.5 L 344 405.5 L 343 403.5 Q 344.8 405.1 346.5 402 Z M 338 413 L 338 415 Q 340 418 341 415 L 338 413 Z " /><path desc="l 3 p 310" fill="rgb(251,251,251)" stroke="rgb(251,251,251)" stroke-width="1" opacity="0.2235294117647059" d="M 158.5 403 L 159 405.5 L 156.5 415 L 155 412.5 L 157 409.5 L 157 407.5 L 158.5 403 Z " /><path desc="l 3 p 312" fill="rgb(251,251,251)" stroke="rgb(251,251,251)" stroke-width="1" opacity="0.2235294117647059" d="M 268.5 405 L 268 406.5 L 267 412 Q 264.3 413.1 265 410.5 L 268.5 405 Z " /><path desc="l 3 p 313" fill="rgb(251,251,251)" stroke="rgb(251,251,251)" stroke-width="1" opacity="0.2235294117647059" d="M 323.5 405 L 322.5 407 L 317.5 409 L 317.5 408 L 323.5 405 Z " /><path desc="l 3 p 314" fill="rgb(251,251,251)" stroke="rgb(251,251,251)" stroke-width="1" opacity="0.2235294117647059" d="M 201.5 406 L 201 407.5 Q 201.5 411.5 198.5 412 L 196.5 413 L 197.5 411 Q 200.1 411.8 199 408.5 L 201.5 406 Z " /><path desc="l 3 p 315" fill="rgb(251,251,251)" stroke="rgb(251,251,251)" stroke-width="1" opacity="0.2235294117647059" d="M 210.5 407 L 211 411.5 L 210 412.5 L 210 421.5 L 208 423.5 L 210 433.5 L 214.5 439 L 220 442.5 L 218.5 445 Q 220.3 442.5 215.5 440 L 213 441 L 213 438.5 L 208 432.5 L 208 430.5 L 207 427.5 L 208 424.5 L 208 422.5 L 209 419.5 L 208 415.5 L 209 412.5 Q 208 408 210.5 407 Z " /><path desc="l 3 p 316" fill="rgb(251,251,251)" stroke="rgb(251,251,251)" stroke-width="1" opacity="0.2235294117647059" d="M 417.5 407 L 417 408.5 L 417 411 L 415 411 Q 416.1 413.7 413.5 413 L 416 409.5 L 417.5 407 Z " /><path desc="l 3 p 317" fill="rgb(251,251,251)" stroke="rgb(251,251,251)" stroke-width="1" opacity="0.2235294117647059" d="M 252.5 411 L 252 412.5 L 253 414.5 L 250 414.5 L 252.5 411 Z " /><path desc="l 3 p 318" fill="rgb(251,251,251)" stroke="rgb(251,251,251)" stroke-width="1" opacity="0.2235294117647059" d="M 305.5 412 L 308 412.5 L 305.5 413 L 305.5 412 Z " /><path desc="l 3 p 319" fill="rgb(251,251,251)" stroke="rgb(251,251,251)" stroke-width="1" opacity="0.2235294117647059" d="M 265.5 413 L 266 424.5 L 271 433.5 Q 269.5 436.5 268 433.5 L 268 431.5 L 264 421.5 L 265 418.5 L 264 414.5 L 265.5 413 Z " /><path desc="l 3 p 320" fill="rgb(251,251,251)" stroke="rgb(251,251,251)" stroke-width="1" opacity="0.2235294117647059" d="M 285.5 413 Q 288.7 416.8 297.5 415 L 300.5 414 L 302 414.5 Q 301.3 412.3 303.5 413 L 301.5 416 L 299.5 415 Q 298.1 417.6 293.5 417 L 291.5 416 L 289.5 417 L 286.5 416 Q 285.3 418.3 284 415.5 L 285.5 413 Z " /><path desc="l 3 p 322" fill="rgb(251,251,251)" stroke="rgb(251,251,251)" stroke-width="1" opacity="0.2235294117647059" d="M 195.5 414 L 195 415.5 Q 195.8 417.8 193.5 417 L 195.5 414 Z " /><path desc="l 3 p 323" fill="rgb(251,251,251)" stroke="rgb(251,251,251)" stroke-width="1" opacity="0.2235294117647059" d="M 412.5 414 L 410 417.5 Q 411.1 420.8 408.5 420 L 404 423.5 L 412.5 414 Z " /><path desc="l 3 p 324" fill="rgb(251,251,251)" stroke="rgb(251,251,251)" stroke-width="1" opacity="0.2235294117647059" d="M 331.5 415 L 333 415.5 L 326.5 418 L 326.5 417 L 331.5 415 Z " /><path desc="l 3 p 326" fill="rgb(251,251,251)" stroke="rgb(251,251,251)" stroke-width="1" opacity="0.2235294117647059" d="M 283.5 417 L 286 418 L 285.5 420 L 283 419 L 283.5 417 Z " /><path desc="l 3 p 327" fill="rgb(251,251,251)" stroke="rgb(251,251,251)" stroke-width="1" opacity="0.2235294117647059" d="M 320.5 417 Q 325.9 415.1 325 418.5 L 323.5 418 L 322 418.5 L 322.5 420 L 314.5 423 L 314.5 422 Q 316.8 422.8 316 420.5 L 318.5 420 L 320 419.5 Q 317.8 418.3 320.5 417 Z " /><path desc="l 3 p 328" fill="rgb(251,251,251)" stroke="rgb(251,251,251)" stroke-width="1" opacity="0.2235294117647059" d="M 155.5 418 L 156 419.5 L 154.5 425 L 154 420.5 L 155.5 418 Z " /><path desc="l 3 p 329" fill="rgb(251,251,251)" stroke="rgb(251,251,251)" stroke-width="1" opacity="0.2235294117647059" d="M 192.5 418 L 191 420.5 L 187 425.5 L 187.5 427 Q 185.3 427.8 186 425.5 L 192.5 418 Z " /><path desc="l 3 p 330" fill="rgb(251,251,251)" stroke="rgb(251,251,251)" stroke-width="1" opacity="0.2235294117647059" d="M 337 419 L 340 419.5 L 335.5 431 L 335 428.5 Q 338.4 425.7 337 419 Z " /><path desc="l 3 p 331" fill="rgb(251,251,251)" stroke="rgb(251,251,251)" stroke-width="1" opacity="0.2235294117647059" d="M 358.5 419 L 358 420.5 L 355 425.5 L 356.5 428 L 358.5 427 L 362.5 427 L 366.5 426 L 366.5 427 L 355.5 429 L 354 425.5 L 358.5 419 Z " /><path desc="l 3 p 332" fill="rgb(251,251,251)" stroke="rgb(251,251,251)" stroke-width="1" opacity="0.2235294117647059" d="M 283.5 420 L 283 421.5 L 284 425 L 286 425.5 L 285 428 L 289.5 427 L 289.5 429 L 292 429.5 L 288.5 430 L 283 426.5 L 282 421.5 L 283.5 420 Z " /><path desc="l 3 p 333" fill="rgb(251,251,251)" stroke="rgb(251,251,251)" stroke-width="1" opacity="0.2235294117647059" d="M 246.5 422 L 247 424.5 Q 247.8 426.8 245.5 426 L 243 427.5 L 246.5 422 Z " /><path desc="l 3 p 334" fill="rgb(251,251,251)" stroke="rgb(251,251,251)" stroke-width="1" opacity="0.2235294117647059" d="M 310.5 422 L 313 423.5 L 309.5 425 L 308.5 423 L 310 423.5 L 310.5 422 Z " /><path desc="l 3 p 335" fill="rgb(251,251,251)" stroke="rgb(251,251,251)" stroke-width="1" opacity="0.2235294117647059" d="M 372.5 422 L 373.5 424 L 371.5 425 L 371 423.5 L 372.5 422 Z " /><path desc="l 3 p 336" fill="rgb(251,251,251)" stroke="rgb(251,251,251)" stroke-width="1" opacity="0.2235294117647059" d="M 402.5 424 L 403 426 L 391.5 434 L 393.5 431 L 402.5 424 Z " /><path desc="l 3 p 337" fill="rgb(251,251,251)" stroke="rgb(251,251,251)" stroke-width="1" opacity="0.2235294117647059" d="M 153.5 426 L 154 436.5 L 156.5 440 L 163 443.5 L 161.5 444 L 158 442.5 Q 158.8 440.3 156.5 441 L 153 436.5 Q 154.5 431 152 429.5 L 153.5 426 Z " /><path desc="l 3 p 339" fill="rgb(251,251,251)" stroke="rgb(251,251,251)" stroke-width="1" opacity="0.2235294117647059" d="M 301.5 426 L 304 426.5 L 294.5 429 L 294.5 428 L 301.5 426 Z " /><path desc="l 3 p 340" fill="rgb(251,251,251)" stroke="rgb(251,251,251)" stroke-width="1" opacity="0.2235294117647059" d="M 319.5 427 L 321 427.5 L 318.5 429 L 319.5 427 Z " /><path desc="l 3 p 341" fill="rgb(251,251,251)" stroke="rgb(251,251,251)" stroke-width="1" opacity="0.2235294117647059" d="M 184.5 428 L 186 428.5 L 184 429 L 180.5 434 L 183 430.5 L 184.5 428 Z " /><path desc="l 3 p 342" fill="rgb(251,251,251)" stroke="rgb(251,251,251)" stroke-width="1" opacity="0.2235294117647059" d="M 241.5 431 L 243 431.5 L 233.5 443 Q 231.3 442.3 232 444.5 L 230 443.5 L 237 438.5 L 241.5 431 Z " /><path desc="l 3 p 343" fill="rgb(251,251,251)" stroke="rgb(251,251,251)" stroke-width="1" opacity="0.2235294117647059" d="M 335 432 L 337 432.5 L 335 433.5 L 335 432 Z " /><path desc="l 3 p 344" fill="rgb(251,251,251)" stroke="rgb(251,251,251)" stroke-width="1" opacity="0.2235294117647059" d="M 316.5 433 L 314.5 436 L 306.5 440 L 306.5 439 L 316.5 433 Z " /><path desc="l 3 p 345" fill="rgb(251,251,251)" stroke="rgb(251,251,251)" stroke-width="1" opacity="0.2235294117647059" d="M 337.5 434 L 343.5 441 L 337 437 L 337.5 434 Z " /><path desc="l 3 p 346" fill="rgb(251,251,251)" stroke="rgb(251,251,251)" stroke-width="1" opacity="0.2235294117647059" d="M 389.5 434 L 390 436 L 384.5 438 L 385.5 436 L 389.5 434 Z " /><path desc="l 3 p 347" fill="rgb(251,251,251)" stroke="rgb(251,251,251)" stroke-width="1" opacity="0.2235294117647059" d="M 179.5 435 L 178 437.5 L 176.5 440 L 173 442.5 L 172.5 444 L 170.5 444 L 169 443.5 Q 176.1 441.1 179.5 435 Z " /><path desc="l 3 p 348" fill="rgb(251,251,251)" stroke="rgb(251,251,251)" stroke-width="1" opacity="0.2235294117647059" d="M 272.5 436 L 279 440.5 L 277.5 440 L 273 439 L 272.5 436 Z " /><path desc="l 3 p 349" fill="rgb(251,251,251)" stroke="rgb(251,251,251)" stroke-width="1" opacity="0.2235294117647059" d="M 381.5 438 Q 383.8 437.3 383 439.5 L 381 439.5 L 380.5 441 L 378.5 441 L 377 440.5 L 381.5 438 Z " /><path desc="l 3 p 350" fill="rgb(251,251,251)" stroke="rgb(251,251,251)" stroke-width="1" opacity="0.2235294117647059" d="M 303.5 440 L 305 440.5 L 301.5 443 L 301 441 L 303.5 440 Z " /><path desc="l 3 p 351" fill="rgb(251,251,251)" stroke="rgb(251,251,251)" stroke-width="1" opacity="0.2235294117647059" d="M 345.5 441 L 351 443.5 L 347.5 445 L 347.5 443 L 345.5 444 L 345.5 441 Z " /><path desc="l 3 p 352" fill="rgb(251,251,251)" stroke="rgb(251,251,251)" stroke-width="1" opacity="0.2235294117647059" d="M 374 441 L 376 441.5 Q 374.3 445.8 372.5 443 L 370.5 444 L 370 442 L 373.5 443 L 374 441 Z " /><path desc="l 3 p 353" fill="rgb(251,251,251)" stroke="rgb(251,251,251)" stroke-width="1" opacity="0.2235294117647059" d="M 282 442 L 284 442.5 L 282 443.5 L 282 442 Z " /><path desc="l 3 p 354" fill="rgb(251,251,251)" stroke="rgb(251,251,251)" stroke-width="1" opacity="0.2235294117647059" d="M 297.5 442 Q 300.8 440.9 300 443.5 L 298.5 443 L 297.5 442 Z " /><path desc="l 3 p 355" fill="rgb(251,251,251)" stroke="rgb(251,251,251)" stroke-width="1" opacity="0.2235294117647059" d="M 286.5 443 L 296 443.5 L 292.5 445 L 290.5 444 L 287.5 445 L 286.5 443 Z " /><path desc="l 3 p 356" fill="rgb(251,251,251)" stroke="rgb(251,251,251)" stroke-width="1" opacity="0.2235294117647059" d="M 366.5 443 Q 369.8 441.9 369 444.5 L 367.5 444 L 366.5 443 Z " /><path desc="l 3 p 357" fill="rgb(251,251,251)" stroke="rgb(251,251,251)" stroke-width="1" opacity="0.2235294117647059" d="M 223 444 L 227 444.5 L 223.5 446 L 223 444 Z " /><path desc="l 3 p 358" fill="rgb(251,251,251)" stroke="rgb(251,251,251)" stroke-width="1" opacity="0.2235294117647059" d="M 353.5 444 L 362 444.5 L 353.5 445 L 353.5 444 Z " /></svg>